<svg width="26" height="30" viewBox="0 0 26 30" fill="none" xmlns="http://www.w3.org/2000/svg">
<path d="M1.65527 2.28719C9.22125 -0.763364 16.7875 -0.763383 24.3535 2.28719C25.3414 2.68583 25.9999 3.64807 26 4.71395V29.1358C26 29.6145 25.6115 30.003 25.1328 30.003H22.5332C22.0546 30.003 21.667 29.6144 21.667 29.1358V27.004H4.33301V29.1358C4.33301 29.6144 3.94538 30.0029 3.4668 30.003H0.866211C0.387774 30.0028 0 29.6143 0 29.1358V4.71395C7.76529e-05 3.63939 0.658666 2.68582 1.65527 2.28719ZM5.90234 19.6983C4.94901 19.6983 4.16895 20.4784 4.16895 21.4317C4.16897 22.385 4.94903 23.1651 5.90234 23.1651C6.8555 23.1649 7.63572 22.3849 7.63574 21.4317C7.63574 20.4785 6.85552 19.6985 5.90234 19.6983ZM20.0977 19.6983C19.1445 19.6985 18.3643 20.4785 18.3643 21.4317C18.3643 22.3849 19.1445 23.1649 20.0977 23.1651C21.051 23.1651 21.831 22.385 21.8311 21.4317C21.8311 20.4784 21.051 19.6983 20.0977 19.6983ZM5.00098 7.00203C4.45498 7.00203 4.00391 7.44445 4.00391 7.9991V15.0011C4.00391 15.547 4.44631 15.9981 5.00098 15.9981H21.2852C21.8312 15.9981 22.2822 15.5557 22.2822 15.0011V7.9991C22.2822 7.45312 21.8398 7.00203 21.2852 7.00203H5.00098ZM10.2266 2.59969C9.84535 2.59976 9.53332 2.98941 9.5332 3.4659C9.5332 3.94251 9.84528 4.33302 10.2266 4.33309H15.7734C16.1547 4.33302 16.4668 3.94251 16.4668 3.4659C16.4667 2.98941 16.1547 2.59976 15.7734 2.59969H10.2266Z" fill="black"/>
</svg>
