<svg width="27" height="33" viewBox="0 0 27 33" fill="none" xmlns="http://www.w3.org/2000/svg">
<path d="M14.026 7.7722L11.0925 2.92934C10.4496 1.86816 9.03034 1.49151 7.93846 2.09235L7.12451 2.54024C4.52385 3.97132 3.17881 6.88529 3.89121 9.72184C5.69796 16.9212 9.42047 23.0665 15.0587 28.1575C17.2799 30.1638 20.6002 30.5105 23.2008 29.0795L24.0148 28.6316C25.1066 28.0307 25.4741 26.6709 24.8312 25.6097L21.8976 20.7669C21.3133 19.8022 20.0978 19.3905 19.0333 19.7962L17.5069 20.3789C16.9796 20.579 16.3669 20.3759 16.0747 19.8936L11.9139 13.0248C11.6217 12.5425 11.7435 11.9352 12.189 11.6L13.4817 10.6315C14.3825 9.95565 14.6163 8.74656 14.0319 7.78185L14.026 7.7722Z" stroke="#272727" stroke-width="2" stroke-miterlimit="10"/>
</svg>
