<svg width="85" height="85" viewBox="0 0 85 85" fill="none" xmlns="http://www.w3.org/2000/svg">
<g filter="url(#filter0_d_2478_1630)">
<rect x="10" y="10" width="65" height="65" rx="32.5" fill="#FF2655"/>
</g>
<path d="M34.2777 49.7064C38.4257 49.7064 41.7882 45.1829 41.7882 39.6029C41.7882 34.0228 38.4257 29.4993 34.2777 29.4993C30.1298 29.4993 26.7672 34.0228 26.7672 39.6029C26.7672 45.1829 30.1298 49.7064 34.2777 49.7064Z" fill="white"/>
<mask id="mask0_2478_1630" style="mask-type:luminance" maskUnits="userSpaceOnUse" x="26" y="29" width="16" height="21">
<path d="M34.2777 49.7064C38.4257 49.7064 41.7882 45.1829 41.7882 39.6029C41.7882 34.0228 38.4257 29.4993 34.2777 29.4993C30.1298 29.4993 26.7672 34.0228 26.7672 39.6029C26.7672 45.1829 30.1298 49.7064 34.2777 49.7064Z" fill="white"/>
</mask>
<g mask="url(#mask0_2478_1630)">
<path d="M37.8697 46.5551C41.3958 46.5551 44.2543 42.9238 44.2543 38.4444C44.2543 33.965 41.3958 30.3337 37.8697 30.3337C34.3437 30.3337 31.4852 33.965 31.4852 38.4444C31.4852 42.9238 34.3437 46.5551 37.8697 46.5551Z" fill="black"/>
</g>
<path d="M51.1845 49.7064C55.3324 49.7064 58.695 45.1829 58.695 39.6029C58.695 34.0228 55.3324 29.4993 51.1845 29.4993C47.0365 29.4993 43.674 34.0228 43.674 39.6029C43.674 45.1829 47.0365 49.7064 51.1845 49.7064Z" fill="white"/>
<mask id="mask1_2478_1630" style="mask-type:luminance" maskUnits="userSpaceOnUse" x="43" y="29" width="16" height="21">
<path d="M51.1845 49.7064C55.3324 49.7064 58.695 45.1829 58.695 39.6029C58.695 34.0228 55.3324 29.4993 51.1845 29.4993C47.0365 29.4993 43.674 34.0228 43.674 39.6029C43.674 45.1829 47.0365 49.7064 51.1845 49.7064Z" fill="white"/>
</mask>
<g mask="url(#mask1_2478_1630)">
<path d="M54.7778 46.5551C58.3039 46.5551 61.1623 42.9238 61.1623 38.4444C61.1623 33.965 58.3039 30.3337 54.7778 30.3337C51.2518 30.3337 48.3933 33.965 48.3933 38.4444C48.3933 42.9238 51.2518 46.5551 54.7778 46.5551Z" fill="black"/>
</g>
<path d="M39.1242 33.4858H20.4408C20.0577 33.4858 19.7501 33.7754 19.7501 34.1288V36.1913C19.7501 36.4867 19.9649 36.7416 20.2725 36.8112L22.5187 37.3325L22.7799 42.674C23.0178 47.581 27.3825 51.4393 32.6759 51.4393C38.1491 51.4393 42.5835 47.3261 42.5835 42.2569V36.6895C42.5835 34.9167 41.0338 33.48 39.1242 33.48V33.4858ZM40.5114 42.4654C40.5114 46.3644 37.1044 49.5217 32.8964 49.5217C28.3112 49.5217 24.5907 46.0747 24.5907 41.8224V36.6895C24.5907 35.9827 25.2118 35.4092 25.9721 35.4092H39.1184C39.8846 35.4092 40.4998 35.9827 40.4998 36.6895V42.4597L40.5114 42.4654Z" fill="#822D46"/>
<path d="M46.0481 33.486H64.7315C65.1146 33.486 65.4222 33.7757 65.4222 34.1291V36.1915C65.4222 36.487 65.2075 36.7419 64.8999 36.8114L62.6537 37.3328L62.3925 42.6743C62.1545 47.5812 57.7898 51.4396 52.4965 51.4396C47.0232 51.4396 42.5889 47.3263 42.5889 42.2571V36.6897C42.5889 34.917 44.1386 33.4802 46.0481 33.4802V33.486ZM44.6609 42.4657C44.6609 46.3646 48.0679 49.522 52.2759 49.522C56.8612 49.522 60.5816 46.0749 60.5816 41.8226V36.6897C60.5816 35.9829 59.9606 35.4094 59.2002 35.4094H46.0539C45.2878 35.4094 44.6725 35.9829 44.6725 36.6897V42.4599L44.6609 42.4657Z" fill="#822D46"/>
<path d="M37.9456 53.7612C41.428 56.0786 44.9105 56.0786 48.3929 53.7612" stroke="#822D46" stroke-miterlimit="10" stroke-linecap="round"/>
<defs>
<filter id="filter0_d_2478_1630" x="0.4" y="0.4" width="84.2" height="84.2" filterUnits="userSpaceOnUse" color-interpolation-filters="sRGB">
<feFlood flood-opacity="0" result="BackgroundImageFix"/>
<feColorMatrix in="SourceAlpha" type="matrix" values="0 0 0 0 0 0 0 0 0 0 0 0 0 0 0 0 0 0 127 0" result="hardAlpha"/>
<feOffset/>
<feGaussianBlur stdDeviation="4.8"/>
<feComposite in2="hardAlpha" operator="out"/>
<feColorMatrix type="matrix" values="0 0 0 0 0 0 0 0 0 0 0 0 0 0 0 0 0 0 0.15 0"/>
<feBlend mode="normal" in2="BackgroundImageFix" result="effect1_dropShadow_2478_1630"/>
<feBlend mode="normal" in="SourceGraphic" in2="effect1_dropShadow_2478_1630" result="shape"/>
</filter>
</defs>
</svg>
