<svg width="19" height="19" viewBox="0 0 19 19" fill="none" xmlns="http://www.w3.org/2000/svg">
<g clip-path="url(#clip0_1021_1762)">
<path d="M10.8646 9.48404L18.7199 1.63705C18.8993 1.45776 19 1.21312 19 0.960099C19 0.107202 17.9667 -0.320084 17.3628 0.283143L8.82986 8.80709C8.4558 9.18075 8.4558 9.78733 8.82986 10.161L17.341 18.6632C17.8661 19.1876 18.6008 19.0904 18.9094 18.4168C19.0855 18.0331 18.995 17.6075 18.7182 17.331L10.8629 9.48404H10.8646Z" fill="#666666"/>
<path d="M8.13543 9.48414L0.280127 1.63715C0.100644 1.45786 0 1.21322 0 0.960197C0 0.1073 1.03328 -0.321662 1.63715 0.283241L10.1701 8.80719C10.5442 9.18085 10.5442 9.78743 10.1701 10.1611L1.65896 18.6649C1.13393 19.1894 0.399223 19.0922 0.09058 18.4186C-0.0855478 18.0349 0.00503222 17.6093 0.281805 17.3328L8.13711 9.48582L8.13543 9.48414Z" fill="#666666"/>
</g>
<defs>
<clipPath id="clip0_1021_1762">
<rect width="19" height="19" fill="white"/>
</clipPath>
</defs>
</svg>
