<svg width="13" height="13" viewBox="0 0 13 13" fill="none" xmlns="http://www.w3.org/2000/svg">
<path d="M11.4072 0.885704C11.6024 0.690473 11.919 0.690534 12.1142 0.885704C12.3094 1.08098 12.3094 1.39752 12.1142 1.59274L7.20699 6.49996L12.1142 11.4072C12.3094 11.6025 12.3094 11.919 12.1142 12.1142C11.919 12.3094 11.6025 12.3094 11.4072 12.1142L6.49996 7.20699L1.59274 12.1142C1.39752 12.3094 1.08098 12.3094 0.885704 12.1142C0.690534 11.919 0.690473 11.6024 0.885704 11.4072L5.79293 6.49996L0.885704 1.59274C0.690442 1.39747 0.690442 1.08097 0.885704 0.885704C1.08097 0.690442 1.39747 0.690442 1.59274 0.885704L6.49996 5.79293L11.4072 0.885704Z" fill="#888888"/>
</svg>
