<svg width="13" height="15" viewBox="0 0 13 15" fill="none" xmlns="http://www.w3.org/2000/svg">
<g clip-path="url(#clip0_1021_1758)">
<path d="M6.23815 -9.07944e-05C2.44088 -0.0834877 -0.419509 3.30145 0.051419 7.01833C0.535612 10.8513 3.71438 13.6018 5.25816 14.7301C5.75396 15.0915 6.43216 15.0915 6.92133 14.7219C8.58947 13.4693 12.2093 10.2643 12.2093 6.02575C12.2093 2.74383 9.54957 0.07513 6.23815 -9.07944e-05ZM6.35588 7.9684C5.05752 8.13029 3.96476 7.05267 4.12727 5.77228C4.23837 4.89907 4.95305 4.19428 5.83853 4.08472C7.13689 3.92284 8.22965 5.00045 8.06714 6.28084C7.95604 7.15406 7.24136 7.85884 6.35588 7.9684Z" fill="#FF2655"/>
</g>
<defs>
<clipPath id="clip0_1021_1758">
<rect width="12.2093" height="15" fill="white"/>
</clipPath>
</defs>
</svg>
