<svg width="12" height="12" viewBox="0 0 12 12" fill="none" xmlns="http://www.w3.org/2000/svg">
<path d="M9.84588 4.72906C9.78256 4.66565 9.78264 4.56603 9.84588 4.50257L10.1863 4.16213C10.4357 3.91285 10.8443 3.91277 11.0937 4.16213L11.5467 4.61512C11.796 4.86449 11.7959 5.27308 11.5467 5.52249L11.2062 5.86293C11.1428 5.92615 11.0431 5.92622 10.9797 5.86293L9.84588 4.72906ZM5.76484 8.81014C5.70237 8.74757 5.7024 8.64624 5.76484 8.58365L9.39289 4.95556C9.45549 4.89323 9.55685 4.89313 9.61938 4.95556L10.7532 6.08942C10.8156 6.15196 10.8155 6.25333 10.7532 6.31592L7.12519 9.94401C7.06261 10.0064 6.96127 10.0065 6.89869 9.94401L5.76484 8.81014ZM4.86716 10.9232C4.81501 10.9391 4.76753 10.8916 4.78567 10.8417L5.39265 9.02352C5.40622 8.97827 5.46564 8.96424 5.49968 8.99797L6.71294 10.2112C6.74689 10.2453 6.73272 10.3047 6.68739 10.3183L4.86716 10.9232Z" fill="#939393"/>
<rect y="0.412109" width="10.3726" height="1.38883" rx="0.694415" fill="#939393"/>
<rect y="3.65283" width="7.54369" height="1.38883" rx="0.694415" fill="#939393"/>
<rect y="6.89355" width="4.24333" height="1.38883" rx="0.694415" fill="#939393"/>
</svg>
