<svg width="63" height="53" viewBox="0 0 63 53" fill="none" xmlns="http://www.w3.org/2000/svg">
<g clip-path="url(#clip0_2351_2294)">
<path d="M62.6456 23.5724C62.6456 24.2669 62.7176 24.9409 62.6661 25.62C62.6147 26.299 62.6456 26.9987 62.5375 27.6726C62.4295 28.3466 62.2597 29.0205 62.1054 29.6842C61.951 30.3478 61.6064 30.9652 61.4006 31.6185C61.1948 32.2719 61.4057 33.0796 61.1536 33.7175C60.9016 34.3554 60.2533 34.8236 59.9498 35.4409C59.6463 36.0583 59.3736 36.6808 59.0238 37.2724C58.674 37.864 58.5505 38.6048 58.1647 39.1707C57.7788 39.7366 57.2438 40.2048 56.8116 40.745C56.3795 41.2851 56.112 41.9642 55.649 42.4735C55.186 42.9829 54.368 43.1423 53.8689 43.6156C53.3699 44.0889 52.9481 44.6343 52.4182 45.0715C51.8883 45.5088 51.5539 46.2085 50.9983 46.6149C50.4427 47.0213 49.6041 47.011 49.0228 47.3763C48.4414 47.7416 48.0041 48.3435 47.3971 48.6727C46.79 49.002 46.1161 49.1769 45.4885 49.465C44.8608 49.7531 44.3515 50.3087 43.7033 50.5556C43.0551 50.8026 42.3914 51.0084 41.7329 51.2193C41.0744 51.4302 40.2924 51.1627 39.6237 51.3273C38.9549 51.492 38.3375 51.8161 37.6584 51.9395C36.9794 52.063 36.326 52.3099 35.6418 52.3923C34.9575 52.4746 34.2785 52.6443 33.5891 52.6855C32.8997 52.7267 32.2103 52.4643 31.5158 52.4643C30.8213 52.4643 30.1422 52.4128 29.4631 52.3717C28.7841 52.3305 28.0895 52.3202 27.4105 52.2379C26.7314 52.1556 26.0214 52.1968 25.3475 52.0733C24.6736 51.9498 23.9739 51.8675 23.3103 51.7029C22.6466 51.5383 21.9469 51.4096 21.2987 51.2039C20.6505 50.9981 20.0486 50.5762 19.4107 50.3293C18.7727 50.0823 18.1297 49.8148 17.5123 49.5267C16.895 49.2386 16.185 49.0894 15.5831 48.7653C14.9812 48.4412 14.3947 48.0451 13.8134 47.6798C13.2321 47.3146 12.6096 46.9802 12.054 46.5789C11.4983 46.1776 10.9684 45.7095 10.4386 45.2722C9.90867 44.8349 9.4508 44.2947 8.95692 43.8214C8.46305 43.3481 7.85599 42.9571 7.39298 42.4478C6.92997 41.9385 6.84765 41.1051 6.42066 40.5649C5.99366 40.0247 5.41747 39.608 5.03162 39.0421C4.64578 38.4762 4.3474 37.8537 4.00271 37.2621C3.65803 36.6705 3.04582 36.2126 2.74744 35.5953C2.44906 34.9779 2.21755 34.3143 1.96032 33.6763C1.70309 33.0384 1.52303 32.3645 1.31725 31.706C1.11147 31.0475 0.926265 30.3838 0.771928 29.7099C0.617591 29.036 0.524989 28.3569 0.416954 27.6726C0.308918 26.9884 0.339785 26.3042 0.28834 25.6148C0.236894 24.9254 0.000244141 24.2515 0.000244141 23.557C0.000244141 22.8625 0.0671234 22.1988 0.118569 21.53C0.170015 20.8612 0.386086 20.1976 0.488977 19.5391C0.591869 18.8806 0.86453 18.2478 1.01372 17.5945C1.16291 16.9411 1.25037 16.2723 1.45101 15.6344C1.65165 14.9964 1.78541 14.3277 2.0272 13.7C2.269 13.0724 2.30501 12.3419 2.5931 11.7348C2.8812 11.1277 3.43167 10.6441 3.76606 10.0577C4.10046 9.47119 4.3937 8.85899 4.76411 8.29823C5.13452 7.73747 5.4329 7.10984 5.84447 6.57995C6.25603 6.05006 6.88881 5.69508 7.33639 5.19092C7.78396 4.68675 8.02061 3.98194 8.5042 3.50864C8.98779 3.03534 9.68231 2.79869 10.1968 2.35626C10.7112 1.91383 11.1897 1.40452 11.7453 1.11128C12.3472 0.797461 13.016 0.699714 13.6488 0.545377C14.2815 0.39104 14.9143 0.0309212 15.5831 5.3823e-05C16.2519 -0.0308135 16.8898 0.303583 17.5638 0.370462C18.2377 0.437341 18.8242 0.679136 19.493 0.797461C20.1618 0.915786 20.7997 0.905496 21.4582 1.04954C22.1167 1.19359 22.7752 1.15758 23.4286 1.30163C24.0819 1.44568 24.7456 1.41481 25.3989 1.54857C26.0523 1.68233 26.6131 2.22765 27.2716 2.3254C27.9301 2.42314 28.6143 2.23794 29.2779 2.29967C29.9416 2.36141 30.5847 2.45915 31.2535 2.45915C31.9222 2.45915 32.6219 2.58777 33.2907 2.53118C33.9595 2.47459 34.6129 2.17106 35.2816 2.06817C35.9504 1.96528 36.5832 1.68233 37.2469 1.55371C37.9105 1.4251 38.5999 1.39937 39.2532 1.26047C39.9066 1.12157 40.6474 1.28105 41.3008 1.14215C41.9541 1.00324 42.6126 0.75116 43.266 0.643124C43.9194 0.535088 44.619 0.493932 45.2724 0.437341C45.9618 0.375607 46.6203 0.344739 47.2788 0.370462C47.9373 0.396185 48.5803 0.591678 49.2337 0.746015C49.8871 0.900352 50.597 0.838617 51.2144 1.15244C51.7905 1.44568 52.4748 1.69261 53.0149 2.15562C53.5551 2.61863 53.9821 3.11766 54.4606 3.58581C54.939 4.05397 55.474 4.50154 55.9216 5.00057C56.3692 5.49959 56.4361 6.32272 56.8476 6.85775C57.2592 7.39279 58.0309 7.66545 58.4064 8.22106C58.782 8.77667 59.1524 9.36315 59.4868 9.94449C59.8212 10.5258 60.0218 11.1946 60.3151 11.8017C60.6083 12.4087 60.5569 13.1598 60.8038 13.7875C61.0508 14.4151 61.4109 14.9862 61.6064 15.6344C61.8019 16.2826 62.0951 16.8948 62.2443 17.5533C62.3935 18.2118 62.5735 18.86 62.6764 19.5288C62.7793 20.1976 62.9234 20.8612 62.9748 21.5352C63.0263 22.2091 62.6456 22.8882 62.6456 23.5673V23.5724Z" fill="#CEB6BB"/>
<path d="M26.3095 21.1392C26.3095 22.842 24.9256 24.2259 23.2227 24.2259C21.5199 24.2259 20.136 22.842 20.136 21.1392" fill="black"/>
<path d="M42.2577 21.0464C42.2577 22.7492 40.8738 24.1331 39.171 24.1331C37.4681 24.1331 36.0842 22.7492 36.0842 21.0464" fill="black"/>
<path d="M24.8228 31.4849H38.1986" stroke="black" stroke-width="3" stroke-miterlimit="10" stroke-linecap="round"/>
</g>
<defs>
<clipPath id="clip0_2351_2294">
<rect width="62.99" height="52.7009" fill="white" transform="translate(-0.0100098)"/>
</clipPath>
</defs>
</svg>
