<svg width="63" height="54" viewBox="0 0 63 54" fill="none" xmlns="http://www.w3.org/2000/svg">
<g clip-path="url(#clip0_2351_2256)">
<path d="M62.5126 24.037C62.5126 24.73 62.5845 25.4024 62.5332 26.0799C62.4818 26.7574 62.5126 27.4555 62.4049 28.1279C62.2971 28.8003 62.1277 29.4727 61.9737 30.1348C61.8197 30.797 61.4758 31.4129 61.2705 32.0648C61.0652 32.7166 61.2756 33.5225 61.0241 34.159C60.7726 34.7954 60.1259 35.2625 59.823 35.8785C59.5202 36.4944 59.2482 37.1155 58.8991 37.7057C58.5501 38.296 58.4269 39.0351 58.042 39.5998C57.657 40.1644 57.1232 40.6314 56.692 41.1704C56.2609 41.7093 55.994 42.3869 55.532 42.895C55.07 43.4032 54.2539 43.5623 53.756 44.0345C53.2582 44.5067 52.8373 45.0508 52.3086 45.4871C51.7799 45.9234 51.4463 46.6215 50.8919 47.0269C50.3376 47.4324 49.5009 47.4222 48.9209 47.7866C48.3409 48.151 47.9046 48.7516 47.299 49.0801C46.6933 49.4086 46.0209 49.5831 45.3947 49.8705C44.7685 50.158 44.2603 50.7123 43.6136 50.9587C42.9669 51.2051 42.3047 51.4104 41.6477 51.6208C40.9907 51.8313 40.2105 51.5644 39.5433 51.7286C38.876 51.8929 38.2601 52.2162 37.5825 52.3394C36.905 52.4626 36.2531 52.709 35.5705 52.7911C34.8878 52.8732 34.2103 53.0426 33.5225 53.0837C32.8347 53.1247 32.1469 52.863 31.4539 52.863C30.761 52.863 30.0835 52.8116 29.4059 52.7706C28.7284 52.7295 28.0355 52.7192 27.3579 52.6371C26.6804 52.555 25.9721 52.5961 25.2997 52.4729C24.6273 52.3497 23.9292 52.2676 23.2671 52.1033C22.6049 51.9391 21.9069 51.8107 21.2601 51.6054C20.6134 51.4001 20.0129 50.9792 19.3764 50.7328C18.7399 50.4865 18.0983 50.2196 17.4824 49.9321C16.8664 49.6447 16.1581 49.4958 15.5576 49.1725C14.957 48.8491 14.3719 48.4539 13.7919 48.0894C13.2119 47.725 12.5908 47.3914 12.0365 46.991C11.4821 46.5907 10.9534 46.1236 10.4248 45.6873C9.89607 45.251 9.43925 44.712 8.9465 44.2398C8.45375 43.7676 7.84807 43.3775 7.38612 42.8694C6.92417 42.3612 6.84204 41.5297 6.41602 40.9907C5.98999 40.4518 5.41512 40.036 5.03015 39.4714C4.64519 38.9068 4.34749 38.2857 4.00359 37.6955C3.65969 37.1052 3.04889 36.6484 2.75118 36.0324C2.45348 35.4165 2.2225 34.7544 1.96586 34.1179C1.70922 33.4814 1.52957 32.809 1.32426 32.152C1.11894 31.495 0.934162 30.8329 0.780177 30.1605C0.626193 29.4881 0.533802 28.8106 0.426013 28.1279C0.318223 27.4452 0.34902 26.7626 0.297692 26.0748C0.246364 25.387 0.0102539 24.7146 0.0102539 24.0216C0.0102539 23.3287 0.0564493 22.7025 0.0615821 22.0506C0.066715 21.3988 0.225832 20.7366 0.251497 20.0848C0.277161 19.4329 0.461942 18.781 0.503005 18.1292C0.544068 17.4773 0.513271 16.8151 0.579997 16.1633C0.646724 15.5114 0.641591 14.8441 0.739115 14.2025C0.836638 13.5609 0.703185 12.8475 0.846904 12.211C0.990623 11.5745 1.41151 10.9894 1.60143 10.3632C1.79134 9.73699 1.94533 9.08512 2.1917 8.48458C2.43808 7.88404 2.6126 7.21677 2.9257 6.64189C3.2388 6.06702 3.80854 5.64099 4.18837 5.10205C4.5682 4.5631 4.73245 3.85477 5.18414 3.36715C5.63583 2.87953 6.30309 2.63829 6.81124 2.202C7.35532 1.73491 7.86347 1.23703 8.49481 0.954726C9.12615 0.67242 9.83448 0.605694 10.5377 0.47224C11.2409 0.338787 11.8671 0.0154189 12.5857 2.04691e-05C13.2632 -0.015378 13.9561 0.323388 14.6747 0.390115C15.3523 0.451709 16.0144 0.698084 16.7227 0.805874C17.4311 0.913663 18.1035 0.903397 18.8015 1.04198C19.4996 1.18057 20.1976 1.14464 20.8854 1.29349C21.5732 1.44234 22.2867 1.42181 22.9694 1.57066C23.652 1.71952 24.2474 2.28926 24.9301 2.42271C25.6128 2.55617 26.3622 2.42271 27.0397 2.5305C27.7172 2.63829 28.4204 2.80254 29.1031 2.86927C29.7858 2.936 30.5095 3.14131 31.1922 3.14131C31.8389 3.14131 32.501 2.89493 33.1837 2.83847C33.8664 2.78201 34.472 2.5459 35.1444 2.45864C35.8168 2.37138 36.4687 2.39192 37.1308 2.27899C37.793 2.16607 38.4962 2.36112 39.1532 2.24306C39.8102 2.12501 40.4415 1.88377 41.0985 1.76058C41.7555 1.63739 42.4228 1.58093 43.0746 1.46801C43.7265 1.35509 44.3938 1.24216 45.0456 1.14977C45.6975 1.05738 46.3853 1.08818 47.0372 1.02145C47.689 0.954726 48.3563 0.610826 49.0082 0.590295C49.696 0.569764 50.3787 0.405513 51.0254 0.451709C51.7132 0.503037 52.3856 0.677553 53.0169 0.821272C53.6842 0.975257 54.3771 1.12411 54.9674 1.40128C55.5577 1.67845 55.8708 2.43298 56.384 2.86927C56.9281 3.33636 57.7545 3.49034 58.2062 3.99849C58.6836 4.52717 59.1404 5.09691 59.5253 5.66152C59.9103 6.22613 60.1721 6.93446 60.48 7.55554C60.788 8.17661 60.7418 8.95166 60.9779 9.60867C61.214 10.2657 61.5477 10.8713 61.7171 11.554C61.8864 12.2367 62.1379 12.8834 62.2509 13.5815C62.3638 14.2795 62.5075 14.9519 62.5742 15.6551C62.641 16.3583 62.7693 17.0359 62.8052 17.7442C62.8411 18.4525 62.6358 19.1403 62.6512 19.8435C62.6666 20.5467 62.99 21.2294 62.9951 21.9377C63.0003 22.646 62.5178 23.3338 62.5178 24.037H62.5126Z" fill="#FF6083"/>
<path d="M24.658 33.5224C29.1851 30.5043 33.7174 30.5043 38.2445 33.5224" stroke="black" stroke-width="3" stroke-miterlimit="10" stroke-linecap="round"/>
<path d="M36.5251 22.6974L43.1978 19.6177" stroke="black" stroke-width="4" stroke-miterlimit="10"/>
<path d="M26.2596 22.6974L19.5869 19.6177" stroke="black" stroke-width="4" stroke-miterlimit="10"/>
<path d="M29.8525 15.5112V19.6175" stroke="#CF1555" stroke-width="2" stroke-miterlimit="10" stroke-linecap="round"/>
<path d="M32.9321 15.5112V19.6175" stroke="#CF1555" stroke-width="2" stroke-miterlimit="10" stroke-linecap="round"/>
</g>
<defs>
<clipPath id="clip0_2351_2256">
<rect width="62.99" height="53.1042" fill="white"/>
</clipPath>
</defs>
</svg>
