<svg width="63" height="51" viewBox="0 0 63 51" fill="none" xmlns="http://www.w3.org/2000/svg">
<g clip-path="url(#clip0_2351_2265)">
<path d="M62.2402 21.9627C62.3881 22.636 62.595 23.2688 62.6837 23.9218C62.7724 24.5748 62.94 25.2582 62.9696 25.9213C62.9991 26.5845 62.9597 27.278 62.9252 27.9412C62.8907 28.6043 62.664 29.2624 62.5655 29.9205C62.4669 30.5786 62.7724 31.348 62.6049 31.996C62.4374 32.6439 61.8657 33.1755 61.6292 33.8032C61.3927 34.4309 61.1759 35.0586 60.8753 35.6559C60.5747 36.2533 60.4811 36.9822 60.1263 37.5492C59.7715 38.1161 59.2639 38.5819 58.85 39.1134C58.4361 39.6449 58.1749 40.3081 57.7215 40.8042C57.2682 41.3002 56.4847 41.4268 55.9919 41.8824C55.4991 42.338 55.0852 42.8442 54.5579 43.2593C54.0307 43.6744 53.6907 44.3376 53.1388 44.7122C52.5869 45.0868 51.7935 45.0361 51.2169 45.3702C50.6404 45.7043 50.2068 46.2713 49.6105 46.57C49.0143 46.8686 48.3687 47.0154 47.7577 47.2787C47.1467 47.5419 46.644 48.0684 46.0231 48.2962C45.4023 48.524 44.7616 48.7113 44.1309 48.9087C43.5002 49.1061 42.7511 48.8378 42.1105 48.9998C41.4699 49.1618 40.8786 49.4807 40.2331 49.6123C39.5876 49.744 38.9617 49.9971 38.3113 50.0933C37.6608 50.1894 37.0153 50.3767 36.3599 50.4425C35.7045 50.5084 35.0294 50.2806 34.374 50.3109C33.7186 50.3413 33.0633 50.3312 32.4079 50.3312C31.7525 50.3312 31.0922 50.3666 30.4319 50.3312C29.7715 50.2957 29.1014 50.402 28.446 50.3413C27.7906 50.2806 27.1204 50.2704 26.465 50.1793C25.8097 50.0882 25.1395 50.0426 24.489 49.9211C23.8386 49.7996 23.2226 49.4706 22.582 49.3187C21.9414 49.1669 21.2959 48.9998 20.6602 48.8125C20.0245 48.6252 19.3346 48.5948 18.7088 48.3772C18.083 48.1595 17.467 47.876 16.856 47.628C16.245 47.3799 15.5994 47.1623 15.0032 46.8737C14.4069 46.5852 13.8205 46.2308 13.2489 45.9018C12.6773 45.5727 12.1402 45.1374 11.5883 44.7729C11.0364 44.4084 10.3908 44.13 9.86851 43.725C9.34617 43.3201 9.11949 42.5152 8.63165 42.0646C8.1438 41.6141 7.53277 41.2952 7.07942 40.7991C6.62607 40.303 6.26142 39.7411 5.85735 39.2045C5.45327 38.6679 4.82253 38.2882 4.47266 37.7112C4.12279 37.1341 3.84684 36.5013 3.5561 35.8888C3.26537 35.2763 3.0584 34.6232 2.83173 33.9803C2.60505 33.3374 2.4178 32.6895 2.26011 32.0263C2.10243 31.3632 2.01866 30.7 1.92996 30.0166C1.84126 29.3333 1.88561 28.6752 1.86097 27.9817C1.83633 27.2881 1.63922 26.6351 1.67372 25.9416C1.70821 25.2481 1.81169 24.6001 1.90532 23.9066C1.99895 23.2131 2.24533 22.6056 2.38823 21.9222C2.53114 21.2388 2.81695 20.5959 2.94999 19.953C3.0929 19.2646 3.15696 18.5812 3.29986 17.9383C3.45262 17.2498 3.52161 16.5715 3.68422 15.9286C3.85669 15.2503 3.79263 14.5163 3.98974 13.8835C4.18685 13.2507 4.65006 12.6584 4.89644 12.0358C5.14283 11.4131 5.35472 10.75 5.66516 10.1476C5.97561 9.5452 6.20721 8.89218 6.58172 8.31509C6.95623 7.738 7.54262 7.37352 7.98119 6.83187C8.39019 6.33071 8.61686 5.61188 9.10964 5.11073C9.55806 4.65007 10.243 4.39696 10.7703 3.93124C11.2975 3.46552 11.7558 2.95424 12.3225 2.61001C12.8892 2.26578 13.5741 2.09873 14.2 1.85575C14.8258 1.61276 15.4023 1.15717 16.0626 1.0053C16.723 0.853436 17.4276 1.05086 18.1027 0.974928C18.7778 0.898996 19.4283 1.01036 20.1083 0.985053C20.7883 0.959742 21.4289 0.823063 22.1089 0.833187C22.789 0.843312 23.4444 0.691446 24.1244 0.721819C24.8044 0.752192 25.4696 0.620576 26.1447 0.656011C26.8198 0.691446 27.4555 1.16223 28.1306 1.19766C28.8057 1.2331 29.4808 1.00024 30.151 1.02049C30.8211 1.04074 31.4913 1.12679 32.1615 1.12679C32.8316 1.12679 33.4821 1.2736 34.1375 1.25335C34.7929 1.2331 35.4433 0.985053 36.0987 0.949617C36.7541 0.914182 37.4046 0.711695 38.055 0.671198C38.7055 0.6307 39.3806 0.716757 40.031 0.686384C40.6815 0.656011 41.3566 0.939493 42.0071 0.929369C42.6575 0.919244 43.3228 0.802814 43.9683 0.828125C44.6138 0.853436 45.2741 0.959742 45.9147 1.03567C46.5553 1.11161 47.2107 1.21791 47.8415 1.36472C48.4722 1.51152 49.0537 1.81019 49.6647 2.05317C50.2758 2.29616 50.9706 2.31134 51.5422 2.66063C52.1138 3.00992 52.7396 3.26303 53.2521 3.71357C53.7646 4.1641 54.2426 4.71588 54.7107 5.1816C55.2133 5.68275 55.7455 6.14341 56.1792 6.64457C56.6424 7.18116 56.7163 8.01136 57.1105 8.55807C57.5047 9.10479 58.2685 9.44395 58.6184 10.0312C58.9682 10.6184 59.3132 11.2461 59.6138 11.8738C59.9144 12.5015 60.0721 13.19 60.3234 13.848C60.5747 14.5061 60.4811 15.2452 60.6979 15.9235C60.9147 16.6019 61.2301 17.184 61.4173 17.8725C61.5947 18.5204 61.8707 19.1633 62.0382 19.8619C62.1959 20.5149 62.0924 21.254 62.2452 21.9577L62.2402 21.9627Z" fill="#C3D6FF"/>
<path d="M36.5737 17.5469L43.1563 20.585" stroke="black" stroke-width="4" stroke-miterlimit="10"/>
<path d="M26.4468 17.5469L19.8643 20.585" stroke="black" stroke-width="4" stroke-miterlimit="10"/>
<path d="M44.2247 36.788C44.2247 42.2414 39.9005 42.3579 32.0723 42.3579C24.2442 42.3579 19.9199 41.735 19.9199 36.2816C19.9199 32.3017 22.2188 28.4737 26.5025 26.6914C28.0924 26.028 29.9558 27.1673 32.0723 27.1673C33.7585 27.1673 35.7839 26.1951 37.1358 26.661C42.0677 28.3674 44.2247 32.5093 44.2247 36.788Z" fill="#BC4470"/>
<mask id="mask0_2351_2265" style="mask-type:luminance" maskUnits="userSpaceOnUse" x="19" y="26" width="26" height="17">
<path d="M44.2247 36.788C44.2247 42.2414 39.9005 42.3579 32.0723 42.3579C24.2442 42.3579 19.9199 41.735 19.9199 36.2816C19.9199 32.3017 22.2188 28.4737 26.5025 26.6914C28.0924 26.028 29.9558 27.1673 32.0723 27.1673C33.7585 27.1673 35.7839 26.1951 37.1358 26.661C42.0677 28.3674 44.2247 32.5093 44.2247 36.788Z" fill="white"/>
</mask>
<g mask="url(#mask0_2351_2265)">
<path d="M32.0723 50.4494C36.6781 50.4494 40.4119 47.2779 40.4119 43.3656C40.4119 39.4533 36.6781 36.2817 32.0723 36.2817C27.4664 36.2817 23.7327 39.4533 23.7327 43.3656C23.7327 47.2779 27.4664 50.4494 32.0723 50.4494Z" fill="#E97CA4"/>
</g>
</g>
<defs>
<clipPath id="clip0_2351_2265">
<rect width="62.99" height="49.8046" fill="white" transform="translate(-0.0100098 0.649902)"/>
</clipPath>
</defs>
</svg>
