<svg width="27" height="11" viewBox="0 0 27 11" fill="none" xmlns="http://www.w3.org/2000/svg">
<path d="M11.4533 0.194829H0.408312C0.181854 0.194829 0 0.366071 0 0.574986V1.79422C0 1.96889 0.126955 2.11959 0.308808 2.16068L1.63668 2.46892L1.79108 5.62661C1.93176 8.52744 4.51202 10.8084 7.64127 10.8084C10.8769 10.8084 13.4983 8.37675 13.4983 5.38002V2.08876C13.4983 1.04076 12.5822 0.191406 11.4533 0.191406V0.194829ZM12.2734 5.50332C12.2734 7.80823 10.2593 9.67476 7.77166 9.67476C5.06101 9.67476 2.86162 7.63699 2.86162 5.12316V2.08876C2.86162 1.67093 3.22876 1.33188 3.67824 1.33188H11.4499C11.9028 1.33188 12.2665 1.67093 12.2665 2.08876V5.49989L12.2734 5.50332Z" fill="#FF2655"/>
<path d="M15.5469 0.195073H26.592C26.8184 0.195073 27.0003 0.366315 27.0003 0.57523V1.79447C27.0003 1.96914 26.8733 2.11983 26.6915 2.16093L25.3636 2.46916L25.2092 5.62685C25.0685 8.52769 22.4883 10.8086 19.359 10.8086C16.1234 10.8086 13.502 8.37699 13.502 5.38027V2.089C13.502 1.04101 14.4181 0.19165 15.5469 0.19165V0.195073ZM14.7269 5.50356C14.7269 7.80847 16.741 9.675 19.2286 9.675C21.9393 9.675 24.1387 7.63723 24.1387 5.1234V2.089C24.1387 1.67118 23.7715 1.33212 23.322 1.33212H15.5504C15.0975 1.33212 14.7338 1.67118 14.7338 2.089V5.50014L14.7269 5.50356Z" fill="#FF2655"/>
</svg>
