<svg width="24" height="41" viewBox="0 0 24 41" fill="none" xmlns="http://www.w3.org/2000/svg">
<path d="M11.1751 0.267601L1.07325 7.54087C0.716717 7.80161 0.5 8.21331 0.5 8.64559V18.8831C0.5 21.1542 2.38055 23 4.69453 23H8.18997C8.57447 23 8.88906 22.6912 8.88906 22.3138V18.1969C8.88906 17.4421 9.51824 16.8246 10.2872 16.8246H13.7827C14.5517 16.8246 15.1809 17.4421 15.1809 18.1969V22.3138C15.1809 22.6912 15.4954 23 15.8799 23H19.3055C21.6195 23 23.5 21.1542 23.5 18.8831V8.64559C23.5 8.20644 23.2903 7.79475 22.9267 7.54087L12.8249 0.267601C12.3356 -0.0892005 11.6644 -0.0892005 11.1681 0.267601H11.1751Z" fill="#D3D5D8"/>
<path d="M15.6504 35.832V38.9141H8.30273V35.832H15.6504ZM7.16602 35.2109V34.1797H11.3379V33.5645C9.49805 33.4766 8.4668 32.9727 8.4668 32.0703C8.4668 31.0742 9.73828 30.5703 11.9824 30.5703C14.25 30.5703 15.5039 31.0742 15.5098 32.0703C15.5039 32.9727 14.4902 33.4766 12.6387 33.5645V34.1797H16.8223V35.2109H7.16602ZM7.64648 30.2422V29.2578H11.3379V28.332H12.6387V29.2578H16.2949V30.2422H7.64648ZM9.5918 37.9297H14.3848V36.8164H9.5918V37.9297ZM9.86133 32.0703C9.86133 32.4863 10.582 32.6914 11.9824 32.6914C13.4062 32.6914 14.1094 32.4863 14.1152 32.0703C14.1094 31.6426 13.4062 31.4551 11.9824 31.4492C10.582 31.4551 9.86133 31.6426 9.86133 32.0703Z" fill="#D3D5D8"/>
</svg>
