<svg width="420" height="420" viewBox="0 0 420 420" fill="none" xmlns="http://www.w3.org/2000/svg">
<g filter="url(#filter0_f_2518_1810)">
<rect x="75" y="75" width="132" height="132" rx="20" fill="#FFFFB5"/>
</g>
<g filter="url(#filter1_f_2518_1810)">
<rect x="213" y="75" width="132" height="132" rx="20" fill="#D4FFE5"/>
</g>
<g filter="url(#filter2_f_2518_1810)">
<rect x="213" y="213" width="132" height="132" rx="20" fill="#FFCDDD"/>
</g>
<g filter="url(#filter3_f_2518_1810)">
<rect x="75" y="213" width="132" height="132" rx="20" fill="#D4FFE5"/>
</g>
<path d="M286.737 115.905C290.422 112.881 295.846 116.24 294.782 120.887L282.808 173.151C281.913 177.059 277 178.381 274.098 175.614C265.489 167.409 257.937 162.667 247.127 158.781C243.326 157.414 242.277 152.38 245.4 149.818L286.737 115.905Z" fill="#FF7291"/>
<circle cx="294.364" cy="112.575" r="11" transform="rotate(31.7689 294.364 112.575)" fill="#FF7291"/>
<rect x="116.5" y="112" width="17" height="33" rx="3" transform="rotate(30 116.5 112)" fill="#41E63B"/>
<rect x="100" y="187.771" width="11.5417" height="22.4045" rx="3" transform="rotate(-30 100 187.771)" fill="#4EA7FF"/>
<rect x="149.826" y="165.794" width="8.85605" height="17.1912" rx="3" transform="rotate(-123.023 149.826 165.794)" fill="#FF4346"/>
<rect x="296.344" y="297.513" width="17.1448" height="33.2811" rx="3" transform="rotate(-123.023 296.344 297.513)" fill="#FF4346"/>
<rect x="121.333" y="320.96" width="13.6886" height="26.572" rx="3" transform="rotate(-112.931 121.333 320.96)" fill="#4EA7FF"/>
<rect x="86.7523" y="308.131" width="7.44093" height="14.4442" rx="3" transform="rotate(-133.954 86.7523 308.131)" fill="#F04EFF"/>
<rect x="310.441" y="157.444" width="7.44093" height="14.4442" rx="3" transform="rotate(180 310.441 157.444)" fill="#F04EFF"/>
<rect x="341.285" y="280.368" width="10.7912" height="20.9476" rx="3" transform="rotate(-154.655 341.285 280.368)" fill="#41E63B"/>
<path d="M215.868 181.449C197.411 99.248 226.103 84.0308 244.186 61.3354" stroke="#2E702B" stroke-width="3" stroke-miterlimit="10"/>
<path d="M213.939 172.525L225.917 179.56L207.036 180.054L213.939 172.525Z" fill="#2E702B"/>
<path d="M249.568 58.9399C250.693 57.7773 250.579 55.9005 249.322 54.882C248.071 53.8682 246.221 54.138 245.312 55.4669L238.024 66.1182C237.527 66.8446 237.681 67.8323 238.376 68.3724C239.047 68.894 240.003 68.8264 240.594 68.2156L249.568 58.9399Z" fill="#2E702B"/>
<g clip-path="url(#clip0_2518_1810)">
<path d="M155 242.35H153C146 240.43 137 249.35 137 249.35" stroke="#7AF2FF" stroke-width="6" stroke-miterlimit="10" stroke-linecap="round"/>
<path d="M134 224.35C134 224.35 145 240.35 151 241.35H153" stroke="#7AF2FF" stroke-width="6" stroke-miterlimit="10" stroke-linecap="round"/>
<path d="M153 241.35C142 236.35 146 224.35 146 224.35" stroke="#7AF2FF" stroke-width="6" stroke-miterlimit="10" stroke-linecap="round"/>
<path d="M276.51 217.63C276.51 219 276.65 220.34 276.54 221.69C276.43 223.04 276.48 224.42 276.26 225.76C276.04 227.1 275.69 228.42 275.37 229.74C275.05 231.06 274.36 232.26 273.94 233.55C273.52 234.84 273.9 236.44 273.37 237.7C272.84 238.96 271.56 239.87 270.94 241.08C270.32 242.29 269.74 243.51 269.03 244.67C268.32 245.83 268.02 247.28 267.22 248.38C266.42 249.48 265.34 250.38 264.46 251.43C263.58 252.48 263 253.8 262.04 254.78C261.08 255.76 259.47 256.04 258.45 256.95C257.43 257.86 256.56 258.9 255.47 259.73C254.38 260.56 253.67 261.91 252.53 262.67C251.39 263.43 249.75 263.36 248.57 264.04C247.39 264.72 246.47 265.86 245.23 266.46C243.99 267.06 242.65 267.35 241.38 267.87C240.11 268.39 239.04 269.42 237.74 269.85C236.44 270.28 235.1 270.62 233.78 270.97C232.46 271.32 230.94 270.73 229.59 270.99C228.24 271.25 226.99 271.81 225.63 271.98C224.27 272.15 222.96 272.56 221.58 272.65C220.2 272.74 218.86 272.98 217.48 272.98C216.1 272.98 214.76 272.39 213.4 272.3C212.04 272.21 210.69 272.02 209.35 271.85C208.01 271.68 206.64 271.56 205.31 271.3C203.98 271.04 202.57 271.02 201.26 270.68C199.95 270.34 198.58 270.07 197.29 269.64C196 269.21 194.65 268.85 193.39 268.34C192.13 267.83 191.02 266.91 189.8 266.32C188.58 265.73 187.36 265.09 186.18 264.41C185 263.73 183.63 263.31 182.5 262.56C181.37 261.81 180.28 260.93 179.21 260.1C178.14 259.27 176.97 258.49 175.95 257.58C174.93 256.67 173.98 255.65 173.03 254.68C172.08 253.71 171.29 252.55 170.41 251.51C169.53 250.47 168.44 249.56 167.64 248.46C166.84 247.36 166.86 245.7 166.15 244.54C165.44 243.38 164.42 242.41 163.8 241.2C163.18 239.99 162.75 238.7 162.23 237.44C161.71 236.18 160.64 235.12 160.21 233.83C159.78 232.54 159.51 231.17 159.19 229.84C158.87 228.51 158.7 227.15 158.49 225.8C158.28 224.45 158.11 223.1 158 221.73C157.89 220.36 157.91 219.01 157.91 217.63C157.91 216.25 158.17 214.84 158.28 213.47C158.39 212.1 158.15 210.63 158.38 209.27C158.61 207.91 158.97 206.52 159.31 205.18C159.65 203.84 160.31 202.56 160.76 201.25C161.21 199.94 161.98 198.75 162.53 197.48C163.08 196.21 163.52 194.89 164.17 193.66C164.82 192.43 165.36 191.14 166.11 189.97C166.86 188.8 167.23 187.34 168.06 186.22C168.89 185.1 170.17 184.33 171.09 183.27C172.01 182.21 172.85 181.1 173.84 180.12C174.83 179.14 175.69 178 176.75 177.09C177.81 176.18 179.3 175.79 180.48 175.21C181.74 174.59 182.89 173.57 184.22 173.3C185.55 173.03 187.01 173.49 188.42 173.49C189.83 173.49 191.16 173.31 192.56 173.49C193.96 173.67 195.21 174.18 196.59 174.46C197.97 174.74 199.38 174.48 200.74 174.79C202.1 175.1 203.28 175.98 204.65 176.27C206.02 176.56 207.29 177.12 208.67 177.35C210.05 177.58 211.44 177.5 212.83 177.64C214.22 177.78 215.59 177.5 216.98 177.5C218.27 177.5 219.51 177.1 220.78 176.99C222.05 176.88 223.43 177.56 224.7 177.36C225.97 177.16 227.15 176.41 228.4 176.17C229.65 175.93 230.95 175.79 232.19 175.52C233.43 175.25 234.78 175.28 236.02 175.03C237.26 174.78 238.48 174.1 239.72 173.89C240.96 173.68 242.27 173.17 243.51 173.06C244.82 172.94 246.15 173.13 247.4 173.18C248.65 173.23 249.87 173.99 251.11 174.28C252.35 174.57 253.57 174.76 254.73 175.35C255.83 175.91 256.78 176.68 257.8 177.56C258.82 178.44 259.88 179.39 260.86 180.37C261.84 181.35 262.62 182.51 263.53 183.56C264.44 184.61 265.76 185.32 266.59 186.44C267.42 187.56 268.5 188.53 269.25 189.71C270 190.89 270.58 192.19 271.23 193.42C271.88 194.65 272.63 195.87 273.18 197.15C273.73 198.43 273.37 200.05 273.82 201.38C274.27 202.71 275.53 203.77 275.87 205.13C276.21 206.49 276.52 207.87 276.75 209.25C276.98 210.63 276.9 212.06 277.01 213.45C277.12 214.84 276.5 216.24 276.5 217.64L276.51 217.63Z" fill="#FF2655"/>
<path d="M201.69 230.63C208.837 230.63 214.63 222.822 214.63 213.19C214.63 203.558 208.837 195.75 201.69 195.75C194.543 195.75 188.75 203.558 188.75 213.19C188.75 222.822 194.543 230.63 201.69 230.63Z" fill="white"/>
<mask id="mask0_2518_1810" style="mask-type:luminance" maskUnits="userSpaceOnUse" x="188" y="195" width="27" height="36">
<path d="M201.69 230.63C208.837 230.63 214.63 222.822 214.63 213.19C214.63 203.558 208.837 195.75 201.69 195.75C194.543 195.75 188.75 203.558 188.75 213.19C188.75 222.822 194.543 230.63 201.69 230.63Z" fill="white"/>
</mask>
<g mask="url(#mask0_2518_1810)">
<path d="M203 225.19C209.075 225.19 214 218.922 214 211.19C214 203.458 209.075 197.19 203 197.19C196.925 197.19 192 203.458 192 211.19C192 218.922 196.925 225.19 203 225.19Z" fill="black"/>
</g>
<path d="M230.81 230.63C237.957 230.63 243.75 222.822 243.75 213.19C243.75 203.558 237.957 195.75 230.81 195.75C223.663 195.75 217.87 203.558 217.87 213.19C217.87 222.822 223.663 230.63 230.81 230.63Z" fill="white"/>
<mask id="mask1_2518_1810" style="mask-type:luminance" maskUnits="userSpaceOnUse" x="217" y="195" width="27" height="36">
<path d="M230.81 230.63C237.957 230.63 243.75 222.822 243.75 213.19C243.75 203.558 237.957 195.75 230.81 195.75C223.663 195.75 217.87 203.558 217.87 213.19C217.87 222.822 223.663 230.63 230.81 230.63Z" fill="white"/>
</mask>
<g mask="url(#mask1_2518_1810)">
<path d="M230 225.19C236.075 225.19 241 218.922 241 211.19C241 203.458 236.075 197.19 230 197.19C223.925 197.19 219 203.458 219 211.19C219 218.922 223.925 225.19 230 225.19Z" fill="black"/>
</g>
<path d="M210.04 202.63H177.85C177.19 202.63 176.66 203.13 176.66 203.74V207.3C176.66 207.81 177.03 208.25 177.56 208.37L181.43 209.27L181.88 218.49C182.29 226.96 189.81 233.62 198.93 233.62C208.36 233.62 216 226.52 216 217.77V208.16C216 205.1 213.33 202.62 210.04 202.62V202.63ZM212.42 218.13C212.42 224.86 206.55 230.31 199.3 230.31C191.4 230.31 184.99 224.36 184.99 217.02V208.16C184.99 206.94 186.06 205.95 187.37 205.95H210.02C211.34 205.95 212.4 206.94 212.4 208.16V218.12L212.42 218.13Z" fill="#973552"/>
<path d="M221.96 202.63H254.15C254.81 202.63 255.34 203.13 255.34 203.74V207.3C255.34 207.81 254.97 208.25 254.44 208.37L250.57 209.27L250.12 218.49C249.71 226.96 242.19 233.62 233.07 233.62C223.64 233.62 216 226.52 216 217.77V208.16C216 205.1 218.67 202.62 221.96 202.62V202.63ZM219.58 218.13C219.58 224.86 225.45 230.31 232.7 230.31C240.6 230.31 247.01 224.36 247.01 217.02V208.16C247.01 206.94 245.94 205.95 244.63 205.95H221.98C220.66 205.95 219.6 206.94 219.6 208.16V218.12L219.58 218.13Z" fill="#973552"/>
<path d="M214 237.35H152.37V245.35H214V237.35Z" fill="#FFD033"/>
<path d="M188 245.35V237.35H179V245.35H188Z" fill="#FFF7DD"/>
<path d="M206 245.35V237.35H197V245.35H206Z" fill="#FFF7DD"/>
<path d="M170 245.35V237.35H161V245.35H170Z" fill="#FFF7DD"/>
<path d="M218 233.35C211.33 238.02 211.33 242.68 218 247.35" stroke="#973552" stroke-width="4" stroke-miterlimit="10" stroke-linecap="round"/>
</g>
<defs>
<filter id="filter0_f_2518_1810" x="0" y="0" width="282" height="282" filterUnits="userSpaceOnUse" color-interpolation-filters="sRGB">
<feFlood flood-opacity="0" result="BackgroundImageFix"/>
<feBlend mode="normal" in="SourceGraphic" in2="BackgroundImageFix" result="shape"/>
<feGaussianBlur stdDeviation="37.5" result="effect1_foregroundBlur_2518_1810"/>
</filter>
<filter id="filter1_f_2518_1810" x="138" y="0" width="282" height="282" filterUnits="userSpaceOnUse" color-interpolation-filters="sRGB">
<feFlood flood-opacity="0" result="BackgroundImageFix"/>
<feBlend mode="normal" in="SourceGraphic" in2="BackgroundImageFix" result="shape"/>
<feGaussianBlur stdDeviation="37.5" result="effect1_foregroundBlur_2518_1810"/>
</filter>
<filter id="filter2_f_2518_1810" x="138" y="138" width="282" height="282" filterUnits="userSpaceOnUse" color-interpolation-filters="sRGB">
<feFlood flood-opacity="0" result="BackgroundImageFix"/>
<feBlend mode="normal" in="SourceGraphic" in2="BackgroundImageFix" result="shape"/>
<feGaussianBlur stdDeviation="37.5" result="effect1_foregroundBlur_2518_1810"/>
</filter>
<filter id="filter3_f_2518_1810" x="0" y="138" width="282" height="282" filterUnits="userSpaceOnUse" color-interpolation-filters="sRGB">
<feFlood flood-opacity="0" result="BackgroundImageFix"/>
<feBlend mode="normal" in="SourceGraphic" in2="BackgroundImageFix" result="shape"/>
<feGaussianBlur stdDeviation="37.5" result="effect1_foregroundBlur_2518_1810"/>
</filter>
<clipPath id="clip0_2518_1810">
<rect width="146.03" height="99.98" fill="white" transform="translate(131 173)"/>
</clipPath>
</defs>
</svg>
