<svg width="23" height="41" viewBox="0 0 23 41" fill="none" xmlns="http://www.w3.org/2000/svg">
<path d="M0.0942618 12.9911C-0.847599 5.47067 5.4768 -0.854351 13.0044 0.094611C18.1049 0.739417 22.2279 4.84711 22.9019 9.94031V9.94813C23.054 11.1073 23.0318 12.2452 22.8579 13.3319C22.8361 13.4765 22.7638 13.6066 22.6626 13.7079L13.7876 22.6483C13.6862 22.7497 13.5555 22.8228 13.4107 22.8446C12.3166 23.033 11.1713 23.0622 9.99758 22.91C4.87545 22.2579 0.739156 18.1133 0.0942618 12.9911ZM7.605 14.3309C8.80071 15.3777 10.0745 15.9674 11.4126 15.9677C12.7512 15.9677 14.0238 15.3773 15.2163 14.33L14.2261 13.203C13.2164 14.0897 12.2818 14.4677 11.4126 14.4677C10.5433 14.4674 9.60685 14.0893 8.59329 13.202L7.605 14.3309ZM8.30227 8.70203C7.62149 8.70219 7.06421 9.25955 7.06399 9.94031C7.06399 10.6213 7.61411 11.1794 8.30227 11.1796C8.98331 11.1796 9.54153 10.6214 9.54153 9.94031C9.54131 9.25945 8.98318 8.70203 8.30227 8.70203ZM14.5191 8.70203C13.8382 8.70203 13.28 9.25945 13.2798 9.94031C13.2798 10.6214 13.8308 11.1796 14.5191 11.1796C15.2 11.1795 15.7573 10.6213 15.7573 9.94031C15.7571 9.25951 15.1999 8.70212 14.5191 8.70203Z" fill="#D3D5D8"/>
<path d="M10.1992 28.4492V39.043H8.88672V28.4492H10.1992ZM1.42188 36.125C4.19922 34.8066 5.47656 33.0137 5.71094 30.6055H1.96094V29.5742H7.03516C7.03516 32.7266 5.81055 35.4043 2.10156 37.168L1.42188 36.125ZM21.3906 34.1797V35.2344H11.7109V34.1797H15.9062V33.3008H12.9414V30.4883H18.8945V29.7031H12.9062V28.6836H20.1953V31.4375H14.2305V32.2812H20.4062V33.3008H17.1953V34.1797H21.3906ZM12.7891 36.9336V35.9023H20.2539V38.9727H18.9414V36.9336H12.7891Z" fill="#D3D5D8"/>
</svg>
