<svg width="26" height="51" viewBox="0 0 26 51" fill="none" xmlns="http://www.w3.org/2000/svg">
<g clip-path="url(#clip0_2609_1808)">
<path d="M24.9263 10.9732L23.5945 10.0687C22.7843 9.51937 22.3793 8.53996 22.5651 7.57998L22.8676 5.99851C23.195 4.29773 21.7023 2.80504 20.0015 3.13243L18.42 3.43485C17.46 3.62074 16.4806 3.21289 15.9313 2.40551L15.0268 1.07374C14.0557 -0.357913 11.9443 -0.357913 10.9732 1.07374L10.0687 2.40551C9.51937 3.21567 8.53996 3.62074 7.57998 3.43485L5.99851 3.13243C4.29773 2.80504 2.80504 4.29773 3.13243 5.99851L3.43485 7.57998C3.62074 8.53996 3.21289 9.51937 2.40551 10.0687L1.07374 10.9732C-0.357913 11.9443 -0.357913 14.0557 1.07374 15.0268L2.40551 15.9313C3.21567 16.4806 3.62074 17.46 3.43485 18.42L3.13243 20.0015C2.80504 21.7023 4.29773 23.195 5.99851 22.8676L7.57998 22.5651C8.53996 22.3793 9.51937 22.7871 10.0687 23.5945L10.9732 24.9263C11.9443 26.3579 14.0557 26.3579 15.0268 24.9263L15.9313 23.5945C16.4806 22.7843 17.46 22.3793 18.42 22.5651L20.0015 22.8676C21.7023 23.195 23.195 21.7023 22.8676 20.0015L22.5651 18.42C22.3793 17.46 22.7871 16.4806 23.5945 15.9313L24.9263 15.0268C26.3579 14.0557 26.3579 11.9443 24.9263 10.9732ZM13.0014 19.2912C9.52769 19.2912 6.70878 16.4751 6.70878 12.9986C6.70878 9.52214 9.52492 6.70601 13.0014 6.70601C16.4779 6.70601 19.294 9.52214 19.294 12.9986C19.294 16.4751 16.4779 19.2912 13.0014 19.2912Z" fill="#BCBCBC"/>
<circle cx="13" cy="13" r="4" fill="#EBEBEB"/>
</g>
<path d="M11.4619 35.1201V41.873H10.0703V38.5039H7.30176V37.376H10.0703V35.1201H11.4619ZM0.475586 40.8184C2.52637 40.1665 3.74951 38.5332 3.75684 36.6875V35.5449H5.13379V36.6875C5.13379 38.3574 6.33496 39.9102 8.3125 40.54L7.58008 41.624C6.13721 41.126 5.0459 40.1372 4.46729 38.8848C3.896 40.2983 2.77539 41.397 1.22266 41.9316L0.475586 40.8184ZM2.87793 43.5869V42.4883H11.4619V45.7549H4.26953V46.9707H11.916V48.084H2.90723V44.7002H10.085V43.5869H2.87793ZM24.4258 35.1201V42.9277H23.0342V39.6025H20.5879V38.46H23.0342V35.1201H24.4258ZM13.4834 41.7412C15.5195 41.0308 16.772 39.2583 16.7646 37.4492V37.1562H13.9229V36.0283H20.998V37.1562H18.1855V37.4346C18.1782 39.0972 19.3647 40.7158 21.3496 41.3896L20.6318 42.4883C19.1597 41.9829 18.0757 40.9282 17.5044 39.6318C16.9331 41.0967 15.7832 42.2759 14.2158 42.8545L13.4834 41.7412ZM15.5928 45.7695C15.5854 44.2095 17.27 43.3013 20.0312 43.2939C22.7778 43.3013 24.4624 44.2095 24.4697 45.7695C24.4624 47.3296 22.7778 48.2378 20.0312 48.2451C17.27 48.2378 15.5854 47.3296 15.5928 45.7695ZM16.9697 45.7695C16.9624 46.6558 18.105 47.1611 20.0312 47.1465C21.9429 47.1611 23.0854 46.6558 23.0928 45.7695C23.0854 44.876 21.9429 44.3706 20.0312 44.3779C18.105 44.3706 16.9624 44.876 16.9697 45.7695Z" fill="#BCBCBC"/>
<defs>
<clipPath id="clip0_2609_1808">
<rect width="26" height="26" fill="white"/>
</clipPath>
</defs>
</svg>
