<svg width="26" height="33" viewBox="0 0 26 33" fill="none" xmlns="http://www.w3.org/2000/svg">
<path d="M0 6.27164C0.000820717 -2.09055 25.9992 -2.09055 26 6.27164V26.2453C26 27.7627 24.8315 28.9904 23.3994 28.9904H21.0781L22.5898 32.3918H20.0322L18.5205 28.9904H7.05176L5.54004 32.3918H2.9834L4.49512 28.9904H2.59961C1.16757 28.9903 0 27.7626 0 26.2453V6.27164ZM6.39355 21.3097C5.45586 21.3097 4.68848 22.0771 4.68848 23.0148C4.68864 23.9524 5.45596 24.7199 6.39355 24.7199C7.331 24.7197 8.09749 23.9523 8.09766 23.0148C8.09766 22.0772 7.3311 21.3099 6.39355 21.3097ZM19.1797 21.3097C18.2421 21.3099 17.4746 22.0772 17.4746 23.0148C17.4748 23.9523 18.2422 24.7197 19.1797 24.7199C20.1173 24.7199 20.8846 23.9524 20.8848 23.0148C20.8848 22.0771 20.1174 21.3097 19.1797 21.3097ZM4.60352 7.67007C4.17729 7.67007 3.83594 8.05375 3.83594 8.52261V16.1945C3.83594 16.6633 4.17729 17.047 4.60352 17.047H11.5078V7.67007H4.60352ZM14.0654 17.047H20.9697C21.396 17.047 21.7373 16.6633 21.7373 16.1945V8.52261C21.7373 8.05375 21.396 7.67007 20.9697 7.67007H14.0654V17.047Z" fill="black"/>
</svg>
