<svg width="19" height="36" viewBox="0 0 19 36" fill="none" xmlns="http://www.w3.org/2000/svg">
<path d="M8.38867 28L5.24316 36H3.14551L6.29102 24L8.38867 28ZM8.38867 7C10.7059 7.00011 12.583 8.79006 12.583 11V22L15.5605 36H13.5156L6.39648 22.21C6.33357 22.07 6.29102 21.9195 6.29102 21.7695V13.8096L2.09668 21H0L6.01855 7.61035C6.18632 7.24035 6.56398 7 6.9834 7H8.38867ZM19 18.9902L17.8252 21L13.6309 17V13L19 18.9902ZM9.375 0C11.0319 0 12.375 1.34315 12.375 3C12.375 4.65685 11.0319 6 9.375 6C7.71826 5.99987 6.375 4.65677 6.375 3C6.375 1.34323 7.71826 0.000132065 9.375 0Z" fill="black"/>
</svg>
