<svg width="63" height="54" viewBox="0 0 63 54" fill="none" xmlns="http://www.w3.org/2000/svg">
<g clip-path="url(#clip0_2351_2247)">
<path d="M62.6655 23.7585C62.6655 24.4569 62.7376 25.1347 62.6861 25.8176C62.6346 26.5006 62.6655 27.2042 62.5575 27.882C62.4494 28.5597 62.2796 29.2375 62.1253 29.9049C61.9709 30.5723 61.6262 31.1932 61.4203 31.8502C61.2145 32.5073 61.4255 33.3196 61.1734 33.9611C60.9212 34.6027 60.2729 35.0735 59.9693 35.6943C59.6658 36.3152 59.3931 36.9412 59.0432 37.5362C58.6933 38.1312 58.5698 38.8762 58.1839 39.4453C57.798 40.0144 57.2629 40.4852 56.8307 41.0285C56.3984 41.5717 56.1309 42.2547 55.6678 42.7669C55.2047 43.2791 54.3866 43.4395 53.8875 43.9154C53.3884 44.3914 52.9665 44.9399 52.4365 45.3796C51.9065 45.8194 51.5721 46.523 51.0164 46.9318C50.4607 47.3405 49.622 47.3301 49.0406 47.6975C48.4591 48.0648 48.0218 48.6701 47.4146 49.0013C46.8075 49.3324 46.1334 49.5083 45.5057 49.798C44.8779 50.0877 44.3686 50.6465 43.7202 50.8948C43.0719 51.1432 42.4082 51.3501 41.7496 51.5623C41.091 51.7744 40.3089 51.5054 39.64 51.6709C38.9711 51.8365 38.3536 52.1624 37.6744 52.2866C36.9952 52.4108 36.3418 52.6591 35.6574 52.7419C34.9731 52.8247 34.2939 52.9954 33.6044 53.0368C32.9149 53.0782 32.2255 52.8143 31.5308 52.8143C30.8362 52.8143 30.157 52.7626 29.4778 52.7212C28.7986 52.6798 28.104 52.6694 27.4248 52.5867C26.7456 52.5039 26.0356 52.5453 25.3615 52.4211C24.6875 52.2969 23.9877 52.2142 23.324 52.0486C22.6602 51.883 21.9604 51.7537 21.3121 51.5467C20.6638 51.3398 20.0618 50.9155 19.4238 50.6672C18.7857 50.4189 18.1426 50.1498 17.5251 49.8601C16.9077 49.5704 16.1976 49.4203 15.5956 49.0944C14.9936 48.7684 14.407 48.3701 13.8256 48.0027C13.2442 47.6354 12.6216 47.2991 12.0659 46.8955C11.5102 46.492 10.9802 46.0212 10.4502 45.5814C9.92025 45.1416 9.46231 44.5984 8.96836 44.1224C8.4744 43.6464 7.86725 43.2532 7.40416 42.741C6.94108 42.2288 6.85875 41.3907 6.43168 40.8474C6.00462 40.3042 5.42834 39.8851 5.04243 39.316C4.65653 38.7469 4.3581 38.1208 4.01336 37.5259C3.66862 36.9309 3.05632 36.4704 2.75789 35.8496C2.45945 35.2287 2.22791 34.5613 1.97064 33.9197C1.71337 33.2782 1.53329 32.6004 1.32747 31.9382C1.12166 31.276 0.936422 30.6085 0.782061 29.9308C0.627699 29.253 0.535082 28.5701 0.427029 27.882C0.318977 27.1939 0.349849 26.5057 0.298395 25.8125C0.246941 25.1192 0.0102539 24.4414 0.0102539 23.743C0.0102539 23.0445 0.0771438 22.3771 0.128598 21.7045C0.180051 21.0319 0.396157 20.3645 0.499065 19.7023C0.601972 19.04 0.874677 18.4036 1.02389 17.7466C1.17311 17.0895 1.26058 16.4169 1.46125 15.7754C1.66192 15.1338 1.7957 14.4612 2.03753 13.83C2.27937 13.1988 2.31538 12.4642 2.60352 11.8537C2.89167 11.2432 3.44222 10.7568 3.77667 10.167C4.11112 9.5772 4.40441 8.96152 4.77487 8.39759C5.14534 7.83365 5.44377 7.20245 5.8554 6.66955C6.26703 6.13665 6.89991 5.77966 7.34756 5.27264C7.79521 4.76561 8.0319 4.0568 8.51556 3.58082C8.99923 3.10483 9.69385 2.86684 10.2084 2.42189C10.7229 1.97695 11.2015 1.46475 11.7572 1.16984C12.3592 0.854244 13.0281 0.755943 13.6609 0.60073C14.2938 0.445517 14.9267 0.0833539 15.5956 0.0523113C16.2645 0.0212687 16.9025 0.357563 17.5766 0.424822C18.2506 0.492081 18.8372 0.735248 19.5061 0.854244C20.175 0.973241 20.813 0.962893 21.4716 1.10776C22.1302 1.25262 22.7888 1.21641 23.4423 1.36127C24.0958 1.50614 24.7595 1.4751 25.413 1.60961C26.0664 1.74413 26.6273 2.29255 27.2859 2.39085C27.9445 2.48915 28.6288 2.3029 29.2926 2.36498C29.9564 2.42707 30.5995 2.52537 31.2684 2.52537C31.9373 2.52537 32.6371 2.65471 33.306 2.5978C33.9749 2.54089 34.6284 2.23564 35.2973 2.13216C35.9662 2.02869 36.599 1.74413 37.2628 1.61479C37.9265 1.48544 38.616 1.45957 39.2695 1.31988C39.923 1.18019 40.6639 1.34058 41.3173 1.20089C41.9708 1.06119 42.6294 0.80768 43.2829 0.699031C43.9363 0.590382 44.6361 0.548992 45.2896 0.492081C45.9791 0.429996 46.6377 0.398953 47.2963 0.424822C47.9549 0.450691 48.5981 0.647294 49.2515 0.802507C49.905 0.957719 50.615 0.895634 51.2325 1.21123C51.8088 1.50614 52.4931 1.75448 53.0334 2.22012C53.5736 2.68576 54.0007 3.18761 54.4792 3.65842C54.9577 4.12923 55.4929 4.57935 55.9405 5.08121C56.3882 5.58306 56.455 6.41086 56.8667 6.94893C57.2783 7.487 58.0501 7.76121 58.4257 8.31998C58.8013 8.87875 59.1718 9.46855 59.5063 10.0532C59.8407 10.6378 60.0414 11.3104 60.3347 11.9209C60.6279 12.5314 60.5765 13.2868 60.8235 13.918C61.0704 14.5492 61.4306 15.1235 61.6261 15.7754C61.8217 16.4273 62.115 17.0429 62.2642 17.7052C62.4134 18.3674 62.5935 19.0193 62.6964 19.6919C62.7993 20.3645 62.9434 21.0319 62.9948 21.7097C63.0463 22.3874 62.6655 23.0704 62.6655 23.7533V23.7585Z" fill="#FFC3D0"/>
<path d="M24.8367 31.0327C29.3749 34.0749 33.9183 34.0749 38.4565 31.0327" stroke="black" stroke-width="3" stroke-miterlimit="10" stroke-linecap="round"/>
<path d="M21 20.2827C23.7459 21.979 25.8869 21.4044 27.4181 18.5604" stroke="black" stroke-width="3" stroke-miterlimit="10" stroke-linecap="round"/>
<path d="M42.1536 20.2827C39.4076 21.979 37.2666 21.4044 35.7354 18.5604" stroke="black" stroke-width="3" stroke-miterlimit="10" stroke-linecap="round"/>
</g>
<defs>
<clipPath id="clip0_2351_2247">
<rect width="63" height="53" fill="white" transform="translate(0 0.0522461)"/>
</clipPath>
</defs>
</svg>
