<svg width="63" height="53" viewBox="0 0 63 53" fill="none" xmlns="http://www.w3.org/2000/svg">
<g clip-path="url(#clip0_2351_2279)">
<path d="M62.6556 23.5724C62.6556 24.2669 62.7276 24.9409 62.6762 25.62C62.6247 26.299 62.6556 26.9987 62.5475 27.6726C62.4395 28.3466 62.2697 29.0205 62.1154 29.6842C61.9611 30.3478 61.6164 30.9652 61.4106 31.6185C61.2048 32.2719 61.4157 33.0796 61.1637 33.7175C60.9116 34.3554 60.2634 34.8236 59.9598 35.4409C59.6563 36.0583 59.3836 36.6808 59.0338 37.2724C58.684 37.864 58.5605 38.6048 58.1747 39.1707C57.7888 39.7366 57.2538 40.2048 56.8216 40.745C56.3895 41.2851 56.122 41.9642 55.659 42.4735C55.196 42.9829 54.378 43.1423 53.879 43.6156C53.3799 44.0889 52.9581 44.6343 52.4282 45.0715C51.8983 45.5088 51.5639 46.2085 51.0083 46.6149C50.4527 47.0213 49.6141 47.011 49.0328 47.3763C48.4514 47.7416 48.0142 48.3435 47.4071 48.6727C46.8 49.002 46.1261 49.1769 45.4985 49.465C44.8708 49.7531 44.3615 50.3087 43.7133 50.5556C43.0651 50.8026 42.4014 51.0084 41.7429 51.2193C41.0844 51.4302 40.3025 51.1627 39.6337 51.3273C38.9649 51.492 38.3475 51.8161 37.6684 51.9395C36.9894 52.063 36.336 52.3099 35.6518 52.3923C34.9675 52.4746 34.2885 52.6443 33.5991 52.6855C32.9097 52.7267 32.2203 52.4643 31.5258 52.4643C30.8313 52.4643 30.1522 52.4128 29.4732 52.3717C28.7941 52.3305 28.0996 52.3202 27.4205 52.2379C26.7414 52.1556 26.0314 52.1968 25.3575 52.0733C24.6836 51.9498 23.9839 51.8675 23.3203 51.7029C22.6566 51.5383 21.9569 51.4096 21.3087 51.2039C20.6605 50.9981 20.0586 50.5762 19.4207 50.3293C18.7828 50.0823 18.1397 49.8148 17.5223 49.5267C16.905 49.2386 16.195 49.0894 15.5931 48.7653C14.9912 48.4412 14.4047 48.0451 13.8234 47.6798C13.2421 47.3146 12.6196 46.9802 12.064 46.5789C11.5083 46.1776 10.9785 45.7095 10.4486 45.2722C9.91868 44.8349 9.46081 44.2947 8.96693 43.8214C8.47306 43.3481 7.866 42.9571 7.40299 42.4478C6.93998 41.9385 6.85766 41.1051 6.43067 40.5649C6.00367 40.0247 5.42748 39.608 5.04163 39.0421C4.65579 38.4762 4.35741 37.8537 4.01272 37.2621C3.66804 36.6705 3.05583 36.2126 2.75745 35.5953C2.45906 34.9779 2.22756 34.3143 1.97033 33.6763C1.7131 33.0384 1.53304 32.3645 1.32726 31.706C1.12148 31.0475 0.936275 30.3838 0.781938 29.7099C0.627601 29.036 0.534999 28.3569 0.426963 27.6726C0.318928 26.9884 0.349795 26.3042 0.298349 25.6148C0.246904 24.9254 0.0102539 24.2515 0.0102539 23.557C0.0102539 22.8625 0.0771332 22.1988 0.128579 21.53C0.180024 20.8612 0.396096 20.1976 0.498987 19.5391C0.601878 18.8806 0.87454 18.2478 1.02373 17.5945C1.17292 16.9411 1.26038 16.2723 1.46102 15.6344C1.66166 14.9964 1.79542 14.3277 2.03721 13.7C2.27901 13.0724 2.31502 12.3419 2.60311 11.7348C2.89121 11.1277 3.44168 10.6441 3.77607 10.0577C4.11047 9.47119 4.40371 8.85899 4.77412 8.29823C5.14453 7.73747 5.44291 7.10984 5.85448 6.57995C6.26604 6.05006 6.89882 5.69508 7.3464 5.19092C7.79397 4.68675 8.03062 3.98194 8.51421 3.50864C8.9978 3.03534 9.69232 2.79869 10.2068 2.35626C10.7212 1.91383 11.1997 1.40452 11.7553 1.11128C12.3572 0.797461 13.026 0.699714 13.6588 0.545377C14.2916 0.39104 14.9243 0.0309212 15.5931 5.3823e-05C16.2619 -0.0308135 16.8998 0.303583 17.5738 0.370462C18.2477 0.437341 18.8342 0.679136 19.503 0.797461C20.1718 0.915786 20.8097 0.905496 21.4682 1.04954C22.1267 1.19359 22.7852 1.15758 23.4386 1.30163C24.0919 1.44568 24.7556 1.41481 25.409 1.54857C26.0623 1.68233 26.6231 2.22765 27.2816 2.3254C27.9401 2.42314 28.6243 2.23794 29.288 2.29967C29.9516 2.36141 30.5947 2.45915 31.2635 2.45915C31.9323 2.45915 32.6319 2.58777 33.3007 2.53118C33.9695 2.47459 34.6229 2.17106 35.2917 2.06817C35.9604 1.96528 36.5932 1.68233 37.2569 1.55371C37.9205 1.4251 38.6099 1.39937 39.2633 1.26047C39.9166 1.12157 40.6574 1.28105 41.3108 1.14215C41.9642 1.00324 42.6227 0.75116 43.276 0.643124C43.9294 0.535088 44.629 0.493932 45.2824 0.437341C45.9718 0.375607 46.6303 0.344739 47.2888 0.370462C47.9473 0.396185 48.5903 0.591678 49.2437 0.746015C49.8971 0.900352 50.607 0.838617 51.2244 1.15244C51.8005 1.44568 52.4848 1.69261 53.025 2.15562C53.5651 2.61863 53.9921 3.11766 54.4706 3.58581C54.949 4.05397 55.4841 4.50154 55.9316 5.00057C56.3792 5.49959 56.4461 6.32272 56.8577 6.85775C57.2692 7.39279 58.0409 7.66545 58.4165 8.22106C58.792 8.77667 59.1624 9.36315 59.4968 9.94449C59.8312 10.5258 60.0318 11.1946 60.3251 11.8017C60.6183 12.4087 60.5669 13.1598 60.8138 13.7875C61.0608 14.4151 61.4209 14.9862 61.6164 15.6344C61.8119 16.2826 62.1051 16.8948 62.2543 17.5533C62.4035 18.2118 62.5835 18.86 62.6864 19.5288C62.7893 20.1976 62.9334 20.8612 62.9848 21.5352C63.0363 22.2091 62.6556 22.8882 62.6556 23.5673V23.5724Z" fill="url(#paint0_linear_2351_2279)"/>
<path d="M23.4901 24.2259C25.1948 24.2259 26.5768 22.4155 26.5768 20.1823C26.5768 17.9491 25.1948 16.1387 23.4901 16.1387C21.7853 16.1387 20.4033 17.9491 20.4033 20.1823C20.4033 22.4155 21.7853 24.2259 23.4901 24.2259Z" fill="black"/>
<path d="M39.752 24.2259C41.4568 24.2259 42.8388 22.4155 42.8388 20.1823C42.8388 17.9491 41.4568 16.1387 39.752 16.1387C38.0473 16.1387 36.6653 17.9491 36.6653 20.1823C36.6653 22.4155 38.0473 24.2259 39.752 24.2259Z" fill="black"/>
<path d="M39.752 40.8324C39.752 45.802 35.6158 48.0348 31.778 48.0348C27.9401 48.0348 24.3184 45.802 24.3184 40.8324C24.3184 35.8627 27.9401 30.0288 31.778 30.0288C35.6158 30.0288 39.752 35.8627 39.752 40.8324Z" fill="#BC4470"/>
<mask id="mask0_2351_2279" style="mask-type:luminance" maskUnits="userSpaceOnUse" x="24" y="30" width="16" height="19">
<path d="M39.752 40.8324C39.752 45.802 35.6158 48.0348 31.778 48.0348C27.9401 48.0348 24.3184 45.802 24.3184 40.8324C24.3184 35.8627 27.9401 30.0288 31.778 30.0288C35.6158 30.0288 39.752 35.8627 39.752 40.8324Z" fill="white"/>
</mask>
<g mask="url(#mask0_2351_2279)">
<path d="M37.1797 45.4624C37.1797 47.8752 34.592 49.0636 32.0352 49.0636C29.4783 49.0636 26.8906 47.8752 26.8906 45.4624C26.8906 43.0496 29.4783 40.3179 32.0352 40.3179C34.592 40.3179 37.1797 43.0496 37.1797 45.4624Z" fill="#E97CA4"/>
</g>
<path d="M17.6304 23.3408C18.1397 25.2855 19.4927 26.515 21.4888 27.1992" stroke="#BB7EA8" stroke-width="2" stroke-miterlimit="10"/>
<path d="M45.4112 23.3408C44.9018 25.2855 43.5488 26.515 41.5527 27.1992" stroke="#BB7EA8" stroke-width="2" stroke-miterlimit="10"/>
</g>
<defs>
<linearGradient id="paint0_linear_2351_2279" x1="31.4999" y1="-0.00195313" x2="31.4999" y2="52.6899" gradientUnits="userSpaceOnUse">
<stop stop-color="#D3AFFF"/>
<stop offset="1" stop-color="#FFC3D0"/>
</linearGradient>
<clipPath id="clip0_2351_2279">
<rect width="62.99" height="52.7009" fill="white"/>
</clipPath>
</defs>
</svg>
