<svg width="36" height="36" viewBox="0 0 36 36" fill="none" xmlns="http://www.w3.org/2000/svg">
<rect width="35.1868" height="35.1868" rx="11" fill="#FF2655"/>
<path d="M13.142 21.4943C15.3874 21.4943 17.2076 19.0456 17.2076 16.025C17.2076 13.0044 15.3874 10.5557 13.142 10.5557C10.8966 10.5557 9.07639 13.0044 9.07639 16.025C9.07639 19.0456 10.8966 21.4943 13.142 21.4943Z" fill="white"/>
<mask id="mask0_2348_1787" style="mask-type:luminance" maskUnits="userSpaceOnUse" x="9" y="10" width="9" height="12">
<path d="M13.1419 21.4943C15.3873 21.4943 17.2075 19.0456 17.2075 16.025C17.2075 13.0044 15.3873 10.5557 13.1419 10.5557C10.8965 10.5557 9.07626 13.0044 9.07626 16.025C9.07626 19.0456 10.8965 21.4943 13.1419 21.4943Z" fill="white"/>
</mask>
<g mask="url(#mask0_2348_1787)">
<path d="M15.0867 19.7883C16.9954 19.7883 18.5428 17.8226 18.5428 15.3978C18.5428 12.973 16.9954 11.0073 15.0867 11.0073C13.178 11.0073 11.6306 12.973 11.6306 15.3978C11.6306 17.8226 13.178 19.7883 15.0867 19.7883Z" fill="black"/>
</g>
<path d="M22.2945 21.4943C24.5398 21.4943 26.3601 19.0456 26.3601 16.025C26.3601 13.0044 24.5398 10.5557 22.2945 10.5557C20.0491 10.5557 18.2289 13.0044 18.2289 16.025C18.2289 19.0456 20.0491 21.4943 22.2945 21.4943Z" fill="white"/>
<mask id="mask1_2348_1787" style="mask-type:luminance" maskUnits="userSpaceOnUse" x="18" y="10" width="9" height="12">
<path d="M22.2945 21.4943C24.5399 21.4943 26.3601 19.0456 26.3601 16.025C26.3601 13.0044 24.5399 10.5557 22.2945 10.5557C20.0491 10.5557 18.2289 13.0044 18.2289 16.025C18.2289 19.0456 20.0491 21.4943 22.2945 21.4943Z" fill="white"/>
</mask>
<g mask="url(#mask1_2348_1787)">
<path d="M24.2397 19.7883C26.1484 19.7883 27.6957 17.8226 27.6957 15.3978C27.6957 12.973 26.1484 11.0073 24.2397 11.0073C22.3309 11.0073 20.7836 12.973 20.7836 15.3978C20.7836 17.8226 22.3309 19.7883 24.2397 19.7883Z" fill="black"/>
</g>
<path d="M15.7657 12.7136H5.65193C5.44457 12.7136 5.27805 12.8704 5.27805 13.0617V14.1781C5.27805 14.3381 5.3943 14.4761 5.56082 14.5137L6.77673 14.7959L6.91812 17.6874C7.04693 20.3436 9.40964 22.4323 12.275 22.4323C15.2379 22.4323 17.6383 20.2056 17.6383 17.4616V14.4478C17.6383 13.4882 16.7994 12.7104 15.7657 12.7104V12.7136ZM16.5166 17.5745C16.5166 19.6851 14.6723 21.3942 12.3944 21.3942C9.91234 21.3942 7.89839 19.5283 7.89839 17.2264V14.4478C7.89839 14.0652 8.23457 13.7548 8.64616 13.7548H15.7625C16.1773 13.7548 16.5103 14.0652 16.5103 14.4478V17.5714L16.5166 17.5745Z" fill="#822D46"/>
<path d="M19.514 12.7138H29.6277C29.8351 12.7138 30.0016 12.8706 30.0016 13.0619V14.1784C30.0016 14.3383 29.8854 14.4763 29.7189 14.5139L28.5029 14.7962L28.3616 17.6876C28.2327 20.3439 25.87 22.4325 23.0046 22.4325C20.0418 22.4325 17.6414 20.2059 17.6414 17.4618V14.4481C17.6414 13.4884 18.4803 12.7107 19.514 12.7107V12.7138ZM18.7631 17.5747C18.7631 19.6853 20.6074 21.3945 22.8852 21.3945C25.3673 21.3945 27.3813 19.5285 27.3813 17.2266V14.4481C27.3813 14.0655 27.0451 13.755 26.6335 13.755H19.5171C19.1024 13.755 18.7694 14.0655 18.7694 14.4481V17.5716L18.7631 17.5747Z" fill="#822D46"/>
<path d="M15.1278 23.6895C17.013 24.9439 18.8981 24.9439 20.7832 23.6895" stroke="#822D46" stroke-miterlimit="10" stroke-linecap="round"/>
</svg>
