<svg xmlns="http://www.w3.org/2000/svg" version="1.1" xmlns:xlink="http://www.w3.org/1999/xlink" width="1000" height="1000"><g clip-path="url(#SvgjsClipPath1020)"><rect width="1000" height="1000" fill="#ffffff"></rect><g transform="matrix(10,0,0,10,0,0)"><svg xmlns="http://www.w3.org/2000/svg" version="1.1" xmlns:xlink="http://www.w3.org/1999/xlink" width="100" height="100"><svg width="100" height="100" viewBox="0 0 100 100" fill="none" xmlns="http://www.w3.org/2000/svg">
<rect width="99.9908" height="99.9908" rx="11" fill="#FF2655"></rect>
<rect width="100" height="100" fill="#FF2655"></rect>
<path d="M37.3453 61.0805C43.726 61.0805 48.8986 54.122 48.8986 45.5383C48.8986 36.9546 43.726 29.9961 37.3453 29.9961C30.9646 29.9961 25.792 36.9546 25.792 45.5383C25.792 54.122 30.9646 61.0805 37.3453 61.0805Z" fill="white"></path>
<mask id="mask0_15_25" style="mask-type:luminance" maskUnits="userSpaceOnUse" x="25" y="29" width="24" height="33">
<path d="M37.3453 61.0805C43.726 61.0805 48.8986 54.122 48.8986 45.5383C48.8986 36.9546 43.726 29.9961 37.3453 29.9961C30.9646 29.9961 25.792 36.9546 25.792 45.5383C25.792 54.122 30.9646 61.0805 37.3453 61.0805Z" fill="white"></path>
</mask>
<g mask="url(#mask0_15_25)">
<path d="M42.8715 56.2329C48.2956 56.2329 52.6927 50.6469 52.6927 43.7563C52.6927 36.8657 48.2956 31.2798 42.8715 31.2798C37.4474 31.2798 33.0503 36.8657 33.0503 43.7563C33.0503 50.6469 37.4474 56.2329 42.8715 56.2329Z" fill="black"></path>
</g>
<path d="M63.3536 61.0805C69.7343 61.0805 74.9069 54.122 74.9069 45.5383C74.9069 36.9546 69.7343 29.9961 63.3536 29.9961C56.9729 29.9961 51.8003 36.9546 51.8003 45.5383C51.8003 54.122 56.9729 61.0805 63.3536 61.0805Z" fill="white"></path>
<mask id="mask1_15_25" style="mask-type:luminance" maskUnits="userSpaceOnUse" x="51" y="29" width="24" height="33">
<path d="M63.3536 61.0805C69.7343 61.0805 74.9069 54.122 74.9069 45.5383C74.9069 36.9546 69.7343 29.9961 63.3536 29.9961C56.9729 29.9961 51.8003 36.9546 51.8003 45.5383C51.8003 54.122 56.9729 61.0805 63.3536 61.0805Z" fill="white"></path>
</mask>
<g mask="url(#mask1_15_25)">
<path d="M68.8813 56.2329C74.3054 56.2329 78.7025 50.6469 78.7025 43.7563C78.7025 36.8657 74.3054 31.2798 68.8813 31.2798C63.4572 31.2798 59.0601 36.8657 59.0601 43.7563C59.0601 50.6469 63.4572 56.2329 68.8813 56.2329Z" fill="black"></path>
</g>
<path d="M44.801 36.1283H16.0605C15.4713 36.1283 14.998 36.5739 14.998 37.1175V40.2901C14.998 40.7446 15.3284 41.1367 15.8016 41.2437L19.2569 42.0457L19.6587 50.2624C20.0247 57.8107 26.7389 63.746 34.8815 63.746C43.301 63.746 50.1223 57.4186 50.1223 49.6208V41.0565C50.1223 38.3295 47.7384 36.1194 44.801 36.1194V36.1283ZM46.9348 49.9416C46.9348 55.9392 41.6939 60.7962 35.2208 60.7962C28.1674 60.7962 22.4443 55.4937 22.4443 48.9524V41.0565C22.4443 39.9693 23.3996 39.087 24.5693 39.087H44.792C45.9706 39.087 46.917 39.9693 46.917 41.0565V49.9327L46.9348 49.9416Z" fill="#822D46"></path>
<path d="M55.4522 36.129H84.1926C84.7819 36.129 85.2551 36.5746 85.2551 37.1182V40.2908C85.2551 40.7453 84.9247 41.1375 84.4515 41.2444L80.9962 42.0465L80.5945 50.2632C80.2284 57.8115 73.5143 63.7467 65.3716 63.7467C56.9521 63.7467 50.1309 57.4193 50.1309 49.6215V41.0573C50.1309 38.3302 52.5147 36.1201 55.4522 36.1201V36.129ZM53.3183 49.9423C53.3183 55.94 58.5592 60.7969 65.0323 60.7969C72.0857 60.7969 77.8088 55.4944 77.8088 48.9531V41.0573C77.8088 39.97 76.8535 39.0878 75.6839 39.0878H55.4611C54.2826 39.0878 53.3361 39.97 53.3361 41.0573V49.9334L53.3183 49.9423Z" fill="#822D46"></path>
<path d="M42.9878 67.3186C48.3448 70.8833 53.7018 70.8833 59.0589 67.3186" stroke="#822D46" stroke-miterlimit="10" stroke-linecap="round"></path>
</svg></svg></g></g><defs><clipPath id="SvgjsClipPath1020"><rect width="1000" height="1000" x="0" y="0" rx="350" ry="350"></rect></clipPath></defs></svg>