<svg width="336" height="456" viewBox="0 0 336 456" fill="none" xmlns="http://www.w3.org/2000/svg">
<path d="M22.8516 5.24023V20.3281H20.0684V12.4766H14.5312V10.2207H20.0684V5.24023H22.8516ZM0.908203 17.5156C5.03906 16.1826 7.42676 12.8428 7.44141 9.07812V6.38281H10.1953V9.22461C10.1953 12.5645 12.5977 15.7578 16.5527 17.0176L15.0879 19.2148C12.1582 18.1895 9.97559 16.168 8.83301 13.6045C7.69043 16.4316 5.44922 18.6289 2.37305 19.7129L0.908203 17.5156ZM5.53711 31.168V21.6172H22.8516V31.168H5.53711ZM8.29102 28.9121H20.127V23.8145H8.29102V28.9121ZM34.8926 12.418C34.8926 16.6074 36.6504 21.0752 40.166 23.2285L38.6133 25.3672C36.1523 23.8877 34.4971 21.2656 33.5889 18.2334C32.6367 21.5586 30.8203 24.4004 28.2715 25.9531L26.543 23.873C30.249 21.6465 32.2119 17.0029 32.1973 12.5352V7.64258H34.8926V12.418ZM37.3242 16.7832V14.4688H41.3965V5.73828H44.0332V30.2012H41.3965V16.7832H37.3242ZM46.8164 31.4902V5.24023H49.4824V31.4902H46.8164ZM73.4473 5.26953V13.707H77.2559V16.0215H73.4473V24.8984H70.6641V5.26953H73.4473ZM52.8516 10.5723V8.31641H59.2969V5.24023H62.0801V8.31641H68.4961V10.5723H52.8516ZM54.2871 16.7832C54.2725 13.7803 56.8652 11.8174 60.6738 11.832C64.4385 11.8174 67.0312 13.7803 67.0312 16.7832C67.0312 19.7568 64.4385 21.6904 60.6738 21.7051C56.8652 21.6904 54.2725 19.7568 54.2871 16.7832ZM56.8066 30.9336V23.3457H59.5898V28.6777H74.5605V30.9336H56.8066ZM56.9824 16.7832C56.9531 18.4971 58.4473 19.5518 60.6738 19.5371C62.9004 19.5518 64.3945 18.4971 64.4238 16.7832C64.3945 15.0547 62.9004 13.9854 60.6738 13.9707C58.4473 13.9854 56.9531 15.0547 56.9824 16.7832ZM106.699 5.21094V13.0625H110.508V15.4062H106.699V24.5176H103.916V5.21094H106.699ZM86.4844 13.5605C86.4551 9.7373 89.502 7.04199 93.457 7.02734C97.4268 7.04199 100.43 9.7373 100.459 13.5605C100.43 17.3838 97.4268 20.1084 93.457 20.0938C89.502 20.1084 86.4551 17.3838 86.4844 13.5605ZM89.209 13.5605C89.1797 16.0068 91.0547 17.6621 93.457 17.6621C95.8887 17.6621 97.7197 16.0068 97.7344 13.5605C97.7197 11.1143 95.8887 9.45898 93.457 9.45898C91.0547 9.45898 89.1797 11.1143 89.209 13.5605ZM90.0586 30.9336V22.4961H92.8418V28.6777H107.812V30.9336H90.0586ZM134.473 5.24023V31.4902H131.807V18.043H128.438V30.1426H125.83V5.76758H128.438V15.7578H131.807V5.24023H134.473ZM113.232 24.8105V8.3457H116.016V22.3643C118.433 22.335 121.084 22.1445 124.072 21.5586L124.365 23.9902C120.762 24.6348 117.759 24.8252 114.932 24.8105H113.232Z" fill="#FF2655"/>
<path d="M161.953 26.0117V28.3555H137.93V26.0117H148.506V21.4121H140.859V13.0625H156.27V9.37109H140.801V7.08594H159.023V15.2891H143.613V19.127H159.639V21.4121H151.26V26.0117H161.953ZM14.2969 43.6719V45.9863H5.06836V58.7891C9.47754 58.7598 12.4805 58.5986 15.9375 57.9395L16.2598 60.2246C12.4805 60.9424 9.28711 61.1035 4.33594 61.1035H2.25586V43.6719H14.2969ZM12.8027 52.9297V50.6152H20.0977V41.2402H22.8809V67.5488H20.0977V52.9297H12.8027ZM50.8301 53.8672V56.0938H40.2246V58.9941H47.9004V67.4902H45.0879V61.1914H29.5605V58.9941H37.4707V56.0938H26.8945V53.8672H50.8301ZM29.4727 46.9531C29.458 43.7451 33.1055 41.8115 38.8477 41.8262C44.5752 41.8115 48.208 43.7451 48.2227 46.9531C48.208 50.1025 44.5752 52.0361 38.8477 52.0215C33.1055 52.0361 29.458 50.1025 29.4727 46.9531ZM32.3438 46.9531C32.3291 48.7842 34.8047 49.8389 38.8477 49.8242C42.8613 49.8389 45.3662 48.7842 45.3516 46.9531C45.3662 45.1074 42.8613 44.0088 38.8477 44.0234C34.8047 44.0088 32.3291 45.1074 32.3438 46.9531ZM73.4766 43.6719V45.9863H64.248V58.7891C68.6572 58.7598 71.6602 58.5986 75.1172 57.9395L75.4395 60.2246C71.6602 60.9424 68.4668 61.1035 63.5156 61.1035H61.4355V43.6719H73.4766ZM71.9824 52.9297V50.6152H79.2773V41.2402H82.0605V67.5488H79.2773V52.9297H71.9824ZM114.023 41.2109V49.0625H117.832V51.4062H114.023V60.5176H111.24V41.2109H114.023ZM93.8086 49.5605C93.7793 45.7373 96.8262 43.042 100.781 43.0273C104.751 43.042 107.754 45.7373 107.783 49.5605C107.754 53.3838 104.751 56.1084 100.781 56.0938C96.8262 56.1084 93.7793 53.3838 93.8086 49.5605ZM96.5332 49.5605C96.5039 52.0068 98.3789 53.6621 100.781 53.6621C103.213 53.6621 105.044 52.0068 105.059 49.5605C105.044 47.1143 103.213 45.459 100.781 45.459C98.3789 45.459 96.5039 47.1143 96.5332 49.5605ZM97.3828 66.9336V58.4961H100.166V64.6777H115.137V66.9336H97.3828ZM141.211 41.2695V60.4883H138.428V50.6152H133.418V48.3594H138.428V41.2695H141.211ZM119.355 55.0098C123.384 53.6475 125.903 50.1904 125.889 46.5723V45.5469H120.205V43.2617H134.355V45.5469H128.73V46.5723C128.716 49.8389 131.089 53.1348 135.059 54.4531L133.623 56.6797C130.679 55.6543 128.496 53.5449 127.354 50.9375C126.211 53.8379 123.911 56.1523 120.791 57.2656L119.355 55.0098ZM124.16 66.9336V58.7598H126.943V64.6777H141.914V66.9336H124.16ZM165.703 41.2402V51.875H169.922V54.1895H165.703V67.4902H162.949V41.2402H165.703ZM145.107 47.627V45.3418H151.582V41.5918H154.365V45.3418H160.664V47.627H145.107ZM146.455 55.6543C146.455 52.0801 149.209 49.5605 152.988 49.5605C156.753 49.5605 159.507 52.0801 159.521 55.6543C159.507 59.2578 156.753 61.7627 152.988 61.7773C149.209 61.7627 146.455 59.2578 146.455 55.6543ZM149.121 55.6543C149.106 57.9395 150.747 59.4629 152.988 59.4336C155.215 59.4629 156.841 57.9395 156.855 55.6543C156.841 53.4131 155.215 51.8604 152.988 51.8457C150.747 51.8604 149.106 53.4131 149.121 55.6543ZM193.74 41.2402V67.4902H191.104V41.2402H193.74ZM171.094 59.9023C176.66 56.5918 179.326 52.1826 179.81 46.7773H172.324V44.4922H182.578C182.563 47.0557 182.212 49.502 181.406 51.7871H185.566V41.9141H188.203V66.2012H185.566V54.0137H180.439C178.887 57.0605 176.382 59.7266 172.676 61.8945L171.094 59.9023ZM201.943 43.7891L201.68 58.877H198.779L198.516 43.7891H201.943ZM198.164 63.125C198.149 61.9824 199.102 61.0449 200.244 61.0449C201.372 61.0449 202.31 61.9824 202.324 63.125C202.31 64.2676 201.372 65.1904 200.244 65.2051C199.102 65.1904 198.149 64.2676 198.164 63.125Z" fill="black"/>
<circle cx="42.5" cy="97.5" r="12.5" fill="#FFEAEF"/>
<line x1="12" y1="97.5" x2="43" y2="97.5" stroke="#FF2655"/>
<circle cx="12.5" cy="97.5" r="3.5" fill="#FF2655"/>
<circle cx="42.5" cy="97.5" r="3" fill="#FF2655" stroke="#FF2655"/>
<path d="M329 365.263C329 443.796 197.423 447 118.806 447C40.1885 447 29 362.276 29 283.743C29 205.21 132.608 161 211.226 161C289.843 161 329 286.73 329 365.263Z" fill="#FFF3F6"/>
<path d="M211 246.059H237.251V264.104L254.368 246.059H335.445V187H211V246.059Z" fill="#E7E7EE"/>
<rect x="223.829" y="204.155" width="18" height="3" rx="1.5" fill="white"/>
<rect x="245.829" y="204.155" width="74" height="3" rx="1.5" fill="white"/>
<rect x="223.829" y="213.155" width="13" height="3" rx="1.5" fill="white"/>
<rect x="240.829" y="213.155" width="79" height="3" rx="1.5" fill="white"/>
<rect x="223.829" y="222.155" width="66" height="3" rx="1.5" fill="white"/>
<rect x="292.829" y="222.155" width="27" height="3" rx="1.5" fill="white"/>
<mask id="path-14-inside-1_40_113" fill="white">
<path d="M140.445 323.059H114.151V340.812L97.3115 323.059H16V264H140.445V323.059Z"/>
</mask>
<path d="M140.445 323.059H114.151V340.812L97.3115 323.059H16V264H140.445V323.059Z" fill="#F9F9FA"/>
<path d="M140.445 323.059V324.059H141.445V323.059H140.445ZM114.151 323.059V322.059H113.151V323.059H114.151ZM114.151 340.812L113.426 341.501L115.151 343.32V340.812H114.151ZM97.3115 323.059L98.0371 322.37L97.7413 322.059H97.3115V323.059ZM16 323.059H15V324.059H16V323.059ZM16 264V263H15V264H16ZM140.445 264H141.445V263H140.445V264ZM140.445 323.059V322.059H114.151V323.059V324.059H140.445V323.059ZM114.151 323.059H113.151V340.812H114.151H115.151V323.059H114.151ZM114.151 340.812L114.877 340.124L98.0371 322.37L97.3115 323.059L96.586 323.747L113.426 341.501L114.151 340.812ZM97.3115 323.059V322.059H16V323.059V324.059H97.3115V323.059ZM16 323.059H17V264H16H15V323.059H16ZM16 264V265H140.445V264V263H16V264ZM140.445 264H139.445V323.059H140.445H141.445V264H140.445Z" fill="#8585A5" mask="url(#path-14-inside-1_40_113)"/>
<rect x="28.7808" y="281.017" width="66" height="3" rx="1.5" fill="#EAEAF1"/>
<rect x="97.7808" y="281.017" width="27" height="3" rx="1.5" fill="#EAEAF1"/>
<rect x="28.7808" y="290.017" width="18" height="3" rx="1.5" fill="#EAEAF1"/>
<rect x="50.7808" y="290.017" width="74" height="3" rx="1.5" fill="#EAEAF1"/>
<rect x="28.7808" y="299.017" width="13" height="3" rx="1.5" fill="#EAEAF1"/>
<rect x="45.7808" y="299.017" width="79" height="3" rx="1.5" fill="#EAEAF1"/>
<path d="M230.721 272.398C230.721 307.516 206.684 311.616 177.034 311.616C147.384 311.616 123.347 307.516 123.347 272.398C129.571 238.766 149.28 213.453 177.034 213C204.948 214.375 226.514 240.611 230.721 272.398Z" fill="#D34E6A"/>
<path d="M229.959 314.657C229.959 352.841 206.684 341.153 177.034 341.153C147.383 341.153 125.631 352.841 125.631 314.657C125.631 276.473 147.383 229.373 177.034 229.373C206.684 229.373 229.959 276.473 229.959 314.657Z" fill="#D34E6A"/>
<path d="M113.916 360.565C117.347 345.533 131.616 335.694 146.985 336.934C170 338.792 188.026 338.5 209.528 336.758C225.052 335.5 239.241 345.82 242.239 361.104L251.88 410.249C255.515 428.782 241.327 446.024 222.441 446.024H132.029C112.766 446.024 98.4945 428.128 102.781 409.348L113.916 360.565Z" fill="#FF90AE"/>
<rect x="162.185" y="313.901" width="28.9376" height="22.8455" fill="#FFDACD"/>
<path d="M175.13 312.378H191.122V326.466L175.13 319.612V312.378Z" fill="#F0A184"/>
<circle cx="144.289" cy="282.679" r="10.2805" fill="#FFDACD"/>
<circle cx="210.541" cy="282.679" r="10.2805" fill="#FFDACD"/>
<path d="M211.302 269.197C211.302 293.28 196.591 319.612 177.034 319.612C157.477 319.612 143.146 293.28 143.146 269.197C156.57 256.992 178.641 239.653 177.034 235.475C175.427 231.297 209.298 247.892 211.302 269.197Z" fill="#FFDACD"/>
<ellipse cx="162.565" cy="272.779" rx="4.18834" ry="4.56909" fill="black"/>
<path d="M178.018 281.344C177.484 282.254 177.416 283.676 177.416 284.963C177.416 286.317 177.807 287.821 178.646 288.721C176.653 288.428 175.13 286.858 175.13 284.963C175.131 283.273 176.342 281.841 178.018 281.344Z" fill="#F0A184"/>
<ellipse cx="191.503" cy="272.779" rx="4.18834" ry="4.56909" fill="black"/>
<path d="M185.244 297.909C186.474 297.909 187.367 299.053 186.558 299.979C184.869 301.911 181.36 303.24 177.304 303.24C173.247 303.24 169.737 301.911 168.048 299.979C167.239 299.053 168.133 297.909 169.362 297.909H185.244Z" fill="#EA8975"/>
<path d="M156.854 262.093C156.854 261.649 157.127 261.249 157.545 261.101C160.869 259.926 163.099 259.935 166.794 261.118C167.226 261.256 167.515 261.661 167.515 262.115C167.515 262.854 166.778 263.365 166.072 263.144C163.27 262.268 161.212 262.232 158.317 263.134C157.602 263.357 156.854 262.842 156.854 262.093Z" fill="#94624C"/>
<path d="M185.792 262.463C185.792 262.019 186.065 261.619 186.483 261.471C189.807 260.295 192.036 260.305 195.732 261.487C196.164 261.625 196.453 262.031 196.453 262.485C196.453 263.224 195.716 263.734 195.01 263.514C192.207 262.638 190.15 262.602 187.255 263.504C186.54 263.727 185.792 263.211 185.792 262.463Z" fill="#94624C"/>
<path d="M208.637 336.746C209.045 350.481 146.594 350.552 146.192 336.746C146.332 335.228 160.33 332.756 177.415 330.654C194.002 333.545 208.136 335.58 208.637 336.746Z" fill="#FFDACD"/>
<path d="M155.758 387.387L166.416 399.531L125.911 447.036C107.254 451.013 102.876 446.68 105.425 427.545L155.758 387.387Z" fill="url(#paint0_linear_40_113)"/>
<path d="M194.608 387.378L184.963 400.341L229.951 445.128C249.079 447.777 253.1 443.11 248.832 424.077L194.608 387.378Z" fill="url(#paint1_linear_40_113)"/>
<path d="M189.98 371.776L194.93 387.646L185.03 400.333L174.369 394.951L171.323 384.186C171.497 377.794 164.874 373.965 175.892 367.969L183.126 367.588L189.98 371.776Z" fill="#FFDACD"/>
<rect x="159.139" y="370.253" width="35.7912" height="3.80758" fill="#7E838C"/>
<path d="M159.139 374.06H194.93L184.649 391.194H169.038L159.139 374.06Z" fill="#BFC4CC"/>
<path d="M161.804 379.01L154.569 388.529L156.473 396.145L166.373 399.571L183.507 396.145L188.076 390.052C190.383 387.834 196.493 384.044 195.691 380.914C193.177 377.438 193.026 377.487 193.026 377.487C193.026 377.487 173.128 386.299 166.373 386.245L161.804 379.01Z" fill="url(#paint2_linear_40_113)"/>
<path d="M203.065 236.454C203.392 235.595 204.608 235.595 204.935 236.454L206.047 239.375C206.148 239.641 206.359 239.852 206.625 239.953L209.546 241.065C210.405 241.392 210.405 242.608 209.546 242.935L206.625 244.047C206.359 244.148 206.148 244.359 206.047 244.625L204.935 247.546C204.608 248.405 203.392 248.405 203.065 247.546L201.953 244.625C201.852 244.359 201.641 244.148 201.375 244.047L198.454 242.935C197.595 242.608 197.595 241.392 198.454 241.065L201.375 239.953C201.641 239.852 201.852 239.641 201.953 239.375L203.065 236.454Z" fill="#FFDC90"/>
<path d="M134.61 403.531L145.706 382.985L138.237 380.464L134.61 403.531Z" fill="#E9688B"/>
<path d="M220.612 403.418L209.921 383.621L217.117 381.192L220.612 403.418Z" fill="#E9688B"/>
<defs>
<linearGradient id="paint0_linear_40_113" x1="157.651" y1="399.553" x2="113.552" y2="394.791" gradientUnits="userSpaceOnUse">
<stop stop-color="#FFDACD"/>
<stop offset="1" stop-color="#FFC6B1"/>
</linearGradient>
<linearGradient id="paint1_linear_40_113" x1="252.163" y1="445.355" x2="234.092" y2="395.433" gradientUnits="userSpaceOnUse">
<stop stop-color="#FFC7B3"/>
<stop offset="1" stop-color="#FFDACD"/>
</linearGradient>
<linearGradient id="paint2_linear_40_113" x1="175.166" y1="397.668" x2="183.507" y2="371.014" gradientUnits="userSpaceOnUse">
<stop stop-color="#FFDACD"/>
<stop offset="1" stop-color="#FFA787"/>
</linearGradient>
</defs>
</svg>
