<svg width="355" height="541" viewBox="0 0 355 541" fill="none" xmlns="http://www.w3.org/2000/svg">
<path d="M24.8516 21.5293V24.1953H36.8926V21.5293H39.6465V31.168H22.0684V21.5293H24.8516ZM17.9961 16.5781C22.9473 16.5928 29.4805 16.5928 35.1934 15.8457L35.3691 17.8379C33.1133 18.2188 30.7695 18.4531 28.4844 18.5996V22.2617H25.7305V18.7461C23.0791 18.8486 20.5596 18.8633 18.3477 18.8633L17.9961 16.5781ZM19.0801 13.0039C23.0352 12.125 25.4229 9.7959 25.4375 7.11523V5.88477H28.2793V7.11523C28.2793 9.64941 30.7109 11.832 34.6074 12.6523L33.377 14.7324C30.3301 14.0732 28.0449 12.5498 26.8877 10.4551C25.7598 12.7109 23.46 14.4102 20.3398 15.1719L19.0801 13.0039ZM24.8516 28.9121H36.8926V26.334H24.8516V28.9121ZM36.8633 20.3281V5.26953H39.6465V20.3281H36.8633ZM64.8348 7.75977V10.3379C64.8201 13.5752 64.8201 17.208 63.8387 22.584L61.0262 22.291C62.0369 17.208 62.0369 13.4873 62.0516 10.3379V10.0156H46.1141V7.75977H64.8348ZM43.5945 27.9453V25.6309H52.7059V16.373H55.4598V25.6309H67.5301V27.9453H43.5945ZM97.516 5.24023V15.3184H100.797V17.6621H97.516V31.4902H94.7621V5.24023H97.516ZM76.6859 25.2207V7.64258H79.0004V14.2051H81.7836V7.64258H84.098V25.2207H76.6859ZM79.0004 22.9062H81.7836V16.4316H79.0004V22.9062ZM85.3871 25.2207V7.64258H87.7016V14.2051H90.4262V7.64258H92.7406V25.2207H85.3871ZM87.7016 22.9062H90.4262V16.4316H87.7016V22.9062ZM125.868 19.6543V21.9102H101.845V19.6543H125.868ZM104.863 8.22852V6.03125H122.851V12.7695H107.675V15.3477H123.378V17.4863H104.921V10.748H120.068V8.22852H104.863ZM104.98 30.9336V23.7852H107.763V28.6777H123.407V30.9336H104.98ZM156.411 5.26953V20.7969H153.628V17.6035H147.007V15.3184H153.628V12.125H147.285C145.586 16.3438 141.645 19.3174 135.962 20.9434L134.848 18.7754C141.059 17.0029 144.692 13.6631 145.19 9.42969H136.196V7.14453H148.208C148.208 8.11133 148.105 9.04883 147.929 9.92773H153.628V5.26953H156.411ZM138.921 26.2168C138.921 23.0381 142.378 21.1045 147.768 21.0898C153.086 21.1045 156.572 23.0381 156.587 26.2168C156.572 29.4102 153.086 31.373 147.768 31.373C142.378 31.373 138.921 29.4102 138.921 26.2168ZM141.675 26.2168C141.675 28.0625 144.018 29.1318 147.768 29.1465C151.445 29.1318 153.789 28.0625 153.804 26.2168C153.789 24.3418 151.445 23.2725 147.768 23.2871C144.018 23.2725 141.675 24.3418 141.675 26.2168ZM184.177 26.0117V28.3555H160.154V26.0117H170.73V21.4121H163.084V13.0625H178.494V9.37109H163.025V7.08594H181.248V15.2891H165.837V19.127H181.863V21.4121H173.484V26.0117H184.177ZM199.082 7.55469V19.8008H186.807V7.55469H199.082ZM189.532 17.6035H196.358V9.81055H189.532V17.6035ZM189.766 30.9336V22.6133H192.549V28.6777H207.52V30.9336H189.766ZM203.623 24.459V5.21094H206.407V13.0625H210.215V15.4062H206.407V24.459H203.623Z" fill="black"/>
<path d="M26.1992 43.584C26.2139 45.3125 27.5029 47.4365 29.9492 48.6963C32.3369 47.4951 33.5967 45.3711 33.582 43.584V41.7969H36.3945V43.584C36.3945 45.9277 37.9912 48.4033 41.4043 49.4141L40.1152 51.4941C37.5225 50.6738 35.8232 49.0039 34.9443 46.9971C34.0801 48.8574 32.4395 50.5127 29.9199 51.3184C27.3857 50.4688 25.7451 48.7695 24.8809 46.8945C24.0166 48.8867 22.332 50.6152 19.7832 51.4941L18.4648 49.4141C21.79 48.374 23.46 45.7227 23.4453 43.584V41.7969H26.1992V43.584ZM17.9668 56.4746V54.1895H28.543V51.5527H31.3262V54.1895H41.9609V56.4746H17.9668ZM20.5742 61.1035V58.877H38.9434V67.4902H36.1602V61.1035H20.5742ZM51.827 43.584C51.8416 45.3125 53.1307 47.4365 55.577 48.6963C57.9646 47.4951 59.2244 45.3711 59.2098 43.584V41.7969H62.0223V43.584C62.0223 45.9277 63.6189 48.4033 67.032 49.4141L65.743 51.4941C63.1502 50.6738 61.451 49.0039 60.5721 46.9971C59.7078 48.8574 58.0672 50.5127 55.5477 51.3184C53.0135 50.4688 51.3729 48.7695 50.5086 46.8945C49.6443 48.8867 47.9598 50.6152 45.4109 51.4941L44.0926 49.4141C47.4178 48.374 49.0877 45.7227 49.073 43.584V41.7969H51.827V43.584ZM43.5945 56.4746V54.1895H54.1707V51.5527H56.9539V54.1895H67.5887V56.4746H43.5945ZM46.202 61.1035V58.877H64.5711V67.4902H61.7879V61.1035H46.202ZM77.4477 65V43.7891H85.0062C89.9428 43.7891 92.3598 46.748 92.3598 50.6738C92.3598 54.585 89.9281 57.5586 85.0062 57.5586H80.6703V65H77.4477ZM80.6703 54.8047H84.684C87.8041 54.8193 89.1078 53.0615 89.1078 50.6738C89.1078 48.2715 87.8041 46.5576 84.684 46.543H80.6703V54.8047ZM98.6809 43.7891V65H95.4582V43.7891H98.6809ZM117.043 50.7031C116.53 47.9639 114.26 46.4404 111.564 46.4551C107.902 46.4404 105.192 49.2529 105.178 54.3945C105.192 59.5654 107.917 62.3486 111.564 62.334C114.23 62.3486 116.486 60.8545 117.043 58.1445L120.295 58.1738C119.621 62.3633 116.208 65.293 111.535 65.293C106.013 65.293 101.984 61.1768 101.984 54.3945C101.984 47.6123 106.042 43.4961 111.535 43.4961C116.018 43.4961 119.577 46.1475 120.295 50.7031H117.043ZM123.481 65V43.7891H126.704V53.8965H126.968L135.845 43.7891H139.887L131.333 53.3398L139.917 65H136.02L129.194 55.5371L126.704 58.4082V65H123.481Z" fill="#FF2655"/>
<circle cx="28.5" cy="100.5" r="12.5" fill="#FFEAEF"/>
<line x1="28" y1="100.5" x2="59" y2="100.5" stroke="#727272"/>
<circle cx="28.5" cy="100.5" r="3.5" fill="#FF2655"/>
<circle cx="58.5" cy="100.5" r="3.5" fill="#727272"/>
<path d="M244.921 265C242.645 274.181 241.127 288.125 247.964 300.035L248.507 300.965C253.982 310.502 254.099 321.344 252.76 330H143C137.477 330 133 325.523 133 320V265H244.921ZM355 320C355 325.523 350.523 330 345 330H264.317C265.654 321.312 265.46 310.359 259.707 300.5C252.526 288.194 254.007 274.184 256.313 265H355V320ZM208.998 253H133V172C133 166.477 137.477 162 143 162H184.614L208.998 253ZM345 162C350.523 162 355 166.477 355 172V253H221.421L211.507 216H336V162H345ZM324 204H208.291L197.037 162H324V204Z" fill="url(#paint0_linear_40_112)"/>
<circle cx="240.5" cy="260.5" r="26.5" fill="#FF2655" fill-opacity="0.3"/>
<g clip-path="url(#clip0_40_112)">
<path d="M241.839 224C232.197 223.794 224.935 232.144 226.13 241.312C227.36 250.767 235.431 257.551 239.351 260.334C240.609 261.226 242.331 261.226 243.573 260.314C247.809 257.224 257 249.319 257 238.864C257 230.768 250.247 224.185 241.839 224ZM242.138 243.655C238.841 244.055 236.067 241.397 236.479 238.238C236.761 236.084 238.576 234.346 240.824 234.076C244.121 233.676 246.895 236.334 246.483 239.493C246.201 241.647 244.386 243.385 242.138 243.655Z" fill="#FF2655"/>
</g>
<circle cx="241.5" cy="239.5" r="5.5" fill="white"/>
<path d="M355 259H241" stroke="#FF2655" stroke-width="4"/>
<circle cx="198.5" cy="210.5" r="5.5" fill="#636875"/>
<circle cx="311.5" cy="185.5" r="5.5" fill="#636875"/>
<circle cx="246.5" cy="299.5" r="5.5" fill="#636875"/>
<path d="M51.0534 414.35L56.8933 343.299C56.9471 342.643 57.6078 342.217 58.2268 342.439L171.707 383.037C172.346 383.266 172.576 384.051 172.163 384.589L163.098 396.372C163.033 396.457 162.955 396.531 162.866 396.59L98.5033 440.159C98.1941 440.369 97.794 440.388 97.4658 440.21L51.5732 415.311C51.2248 415.122 51.021 414.745 51.0534 414.35Z" fill="url(#paint1_linear_40_112)"/>
<path d="M180.357 290.283C178.38 284.181 171.832 280.838 165.73 282.814L148.734 288.32C143.571 289.993 140.742 295.534 142.414 300.696L143.516 304.095C145.188 309.258 150.729 312.088 155.892 310.415L172.888 304.909C178.989 302.933 182.333 296.384 180.357 290.283Z" fill="url(#paint2_linear_40_112)"/>
<rect x="63" y="255" width="99" height="153" rx="10" fill="#41424B"/>
<rect x="67" y="260" width="90" height="143" rx="6" fill="#F3F4FF"/>
<rect x="93.5" y="350.5" width="58" height="29" rx="4.5" fill="white" stroke="#A7A9B5"/>
<rect x="89.5" y="277.5" width="58" height="29" rx="4.5" fill="white" stroke="#A7A9B5"/>
<rect x="74.5" y="313.5" width="58" height="30" rx="4.5" fill="#FFF3F6" stroke="#FF93AA"/>
<path d="M135 329.5C135 323.149 140.149 318 146.5 318H171C176.523 318 181 322.477 181 328V331C181 336.523 176.523 341 171 341H146.5C140.149 341 135 335.851 135 329.5Z" fill="url(#paint3_linear_40_112)"/>
<rect x="59.062" y="316.39" width="22.4711" height="25.6643" rx="11.2355" transform="rotate(20.6773 59.062 316.39)" fill="url(#paint4_linear_40_112)"/>
<path d="M138 351.5C138 345.149 143.149 340 149.5 340H168C173.523 340 178 344.477 178 350V353C178 358.523 173.523 363 168 363H149.5C143.149 363 138 357.851 138 351.5Z" fill="url(#paint5_linear_40_112)"/>
<path d="M142 375C142 368.373 147.373 363 154 363H166.75C171.306 363 175 366.694 175 371.25V378.75C175 383.306 171.306 387 166.75 387H154C147.373 387 142 381.627 142 375Z" fill="url(#paint6_linear_40_112)"/>
<line x1="97" y1="285.5" x2="137" y2="285.5" stroke="#D4D4D4"/>
<line x1="100" y1="359.5" x2="140" y2="359.5" stroke="#D4D4D4"/>
<line x1="97" y1="298.5" x2="137" y2="298.5" stroke="#D4D4D4"/>
<line x1="97" y1="290.5" x2="131" y2="290.5" stroke="#D4D4D4"/>
<line x1="106" y1="366.5" x2="140" y2="366.5" stroke="#D4D4D4"/>
<path d="M128.064 255H97.9361C96.526 255 95.5587 256.42 96.075 257.732L98.0422 262.732C98.3431 263.497 99.0814 264 99.9033 264H126.097C126.919 264 127.657 263.497 127.958 262.732L129.925 257.732C130.441 256.42 129.474 255 128.064 255Z" fill="#41424B"/>
<path d="M99 439.5L51 413L0 439.5L-13.5 540.5L99 439.5Z" fill="#FF85A0"/>
<g clip-path="url(#clip1_40_112)">
<path d="M108.902 323.375L101.693 330.901L99.097 328.191C98.6177 327.69 97.8401 327.69 97.3595 328.191C96.8802 328.691 96.8802 329.503 97.3595 330.005L100.827 333.624C101.306 334.125 102.083 334.125 102.564 333.624L110.641 325.191C111.12 324.69 111.12 323.878 110.641 323.377H110.639C110.16 322.875 109.382 322.875 108.902 323.375Z" fill="#FF93AA"/>
</g>
<defs>
<linearGradient id="paint0_linear_40_112" x1="188" y1="246" x2="428" y2="246" gradientUnits="userSpaceOnUse">
<stop stop-color="#F8E8EC"/>
<stop offset="1" stop-color="#F5DCE1"/>
</linearGradient>
<linearGradient id="paint1_linear_40_112" x1="53.5" y1="384" x2="155" y2="422.5" gradientUnits="userSpaceOnUse">
<stop stop-color="#FFD0AE"/>
<stop offset="1" stop-color="#FDA681"/>
</linearGradient>
<linearGradient id="paint2_linear_40_112" x1="180.709" y1="291.37" x2="146.716" y2="283.526" gradientUnits="userSpaceOnUse">
<stop stop-color="#FFD0AE"/>
<stop offset="1" stop-color="#FDA681"/>
</linearGradient>
<linearGradient id="paint3_linear_40_112" x1="181" y1="329.5" x2="135" y2="329.5" gradientUnits="userSpaceOnUse">
<stop stop-color="#FFD0AE"/>
<stop offset="1" stop-color="#FFBB9E"/>
</linearGradient>
<linearGradient id="paint4_linear_40_112" x1="59.062" y1="328.581" x2="88.914" y2="326.44" gradientUnits="userSpaceOnUse">
<stop stop-color="#FFD0AE"/>
<stop offset="1" stop-color="#FDA681"/>
</linearGradient>
<linearGradient id="paint5_linear_40_112" x1="178" y1="351.5" x2="138" y2="351.5" gradientUnits="userSpaceOnUse">
<stop stop-color="#FFD0AE"/>
<stop offset="1" stop-color="#FFBB9E"/>
</linearGradient>
<linearGradient id="paint6_linear_40_112" x1="175" y1="375" x2="142" y2="375" gradientUnits="userSpaceOnUse">
<stop stop-color="#FFD0AE"/>
<stop offset="1" stop-color="#FFBB9E"/>
</linearGradient>
<clipPath id="clip0_40_112">
<rect width="31" height="37" fill="white" transform="translate(226 224)"/>
</clipPath>
<clipPath id="clip1_40_112">
<rect width="14" height="11" fill="white" transform="translate(97 323)"/>
</clipPath>
</defs>
</svg>
